<?xml version="1.0" standalone="no"?>
<!DOCTYPE svg PUBLIC "-//W3C//DTD SVG 20010904//EN"
 "http://www.w3.org/TR/2001/REC-SVG-20010904/DTD/svg10.dtd">
<svg version="1.0" xmlns="http://www.w3.org/2000/svg"
 width="500.000000pt" height="500.000000pt" viewBox="0 0 500.000000 500.000000"
 preserveAspectRatio="xMidYMid meet">
<metadata>
Created by potrace 1.14, written by Peter Selinger 2001-2017
</metadata>
<g transform="translate(0.000000,500.000000) scale(0.100000,-0.100000)"
fill="#000000" stroke="none">
<path d="M3913 4849 c-23 -4 -93 -10 -155 -13 -178 -7 -278 -18 -278 -29 0 -8
-4 -7 -11 0 -8 8 -20 7 -45 -3 -19 -8 -34 -10 -34 -5 0 6 -13 6 -34 0 -19 -5
-38 -9 -43 -8 -30 5 -32 -4 -7 -36 14 -19 30 -35 34 -35 5 0 13 14 19 30 10
31 10 31 41 15 17 -9 34 -13 39 -11 12 8 19 -26 10 -49 -4 -11 -8 -16 -8 -11
-2 19 -61 -48 -61 -68 1 -23 29 -79 30 -59 0 7 10 17 21 24 18 9 24 8 31 -4 4
-9 21 -18 37 -22 16 -3 36 -16 44 -28 22 -33 57 -67 67 -67 19 0 10 29 -10 35
-11 4 -28 17 -36 31 -13 19 -14 27 -4 39 7 8 18 15 26 15 18 0 44 -40 44 -68
0 -18 4 -23 16 -18 16 6 63 -39 64 -61 0 -7 -11 -24 -25 -39 -14 -15 -23 -34
-20 -42 3 -7 5 -16 5 -18 0 -2 8 -4 18 -4 22 0 27 -36 6 -44 -8 -3 -25 -1 -37
6 -49 25 -58 28 -81 28 -13 0 -32 3 -41 6 -14 6 -14 8 1 25 9 11 24 19 32 19
11 0 13 8 9 34 -3 19 0 39 6 46 9 9 1 10 -38 7 -51 -5 -145 12 -145 25 0 5 -7
8 -15 8 -8 0 -15 4 -15 9 0 5 -21 14 -47 19 -78 17 -103 20 -103 11 0 -5 -4
-9 -9 -9 -6 0 -11 15 -13 33 -3 28 -9 34 -46 47 -33 11 -48 12 -72 3 -24 -9
-30 -9 -30 2 0 7 -25 21 -55 31 -45 14 -61 15 -81 5 -21 -9 -29 -9 -38 3 -18
22 -126 29 -148 9 -17 -15 -18 -15 -18 6 0 12 -4 20 -8 17 -4 -3 -25 -1 -46 4
-22 5 -51 4 -69 -1 -18 -5 -65 -10 -104 -10 -64 0 -75 -3 -91 -24 -18 -22 -23
-24 -72 -16 -37 6 -68 4 -104 -5 -28 -8 -63 -14 -78 -14 -39 0 -77 -20 -84
-43 -5 -17 -8 -14 -20 18 -17 50 -36 69 -63 60 -30 -9 -28 -45 3 -45 17 0 30
-10 45 -35 23 -39 22 -39 -45 -35 -18 1 -74 -13 -125 -30 -114 -38 -115 -38
-111 -22 1 8 -2 11 -7 8 -5 -4 -12 -2 -16 4 -4 6 -11 8 -16 4 -5 -3 -9 -2 -8
3 1 4 1 16 0 25 -1 15 -5 16 -26 6 -14 -6 -25 -18 -25 -27 0 -14 -2 -14 -9 -1
-6 8 -7 18 -4 24 3 5 1 6 -4 3 -14 -9 -37 19 -28 33 28 46 3 101 -37 79 -21
-11 -38 -4 -38 16 0 18 31 35 64 35 30 0 40 13 32 45 -6 25 -45 41 -101 44
-47 1 -220 22 -224 27 -2 2 -10 -1 -18 -7 -8 -7 -13 -7 -13 -2 0 6 -30 11 -66
12 -37 1 -70 3 -74 6 -6 4 -379 18 -420 16 -27 -1 -263 0 -333 2 -37 1 -67 0
-67 -3 0 -3 -25 -5 -54 -6 -59 -1 -130 -37 -121 -62 3 -7 1 -11 -4 -8 -15 10
-19 -33 -20 -188 0 -82 -2 -151 -5 -154 -3 -2 -1 -13 4 -23 7 -12 7 -20 0 -24
-7 -4 -9 -24 -6 -48 5 -33 16 -294 19 -449 1 -16 5 -28 10 -28 4 0 4 -7 -1
-16 -6 -10 -6 -31 0 -53 5 -20 12 -46 15 -57 3 -12 0 -25 -5 -28 -7 -4 -8 -16
-2 -34 5 -15 14 -72 20 -127 6 -55 13 -111 15 -125 10 -62 14 -95 21 -180 3
-49 9 -90 13 -90 3 0 7 -12 7 -27 1 -16 5 -50 9 -78 4 -27 8 -68 9 -90 2 -22
6 -47 10 -56 4 -9 5 -28 2 -43 -3 -15 -1 -24 5 -21 5 4 9 -2 9 -12 0 -10 12
-26 28 -35 15 -9 40 -28 55 -42 39 -36 64 -33 84 9 16 34 16 37 -5 81 -14 28
-20 54 -16 70 4 14 -1 39 -11 61 l-17 36 -35 -37 c-29 -30 -38 -35 -50 -25
-20 17 -8 59 25 87 26 22 26 23 8 37 -10 8 -24 16 -29 18 -7 2 -1 19 12 41 26
42 26 42 97 -31 23 -24 46 -43 52 -43 6 0 19 12 29 26 10 15 28 37 41 49 14
15 20 29 16 40 -4 10 -1 21 7 26 11 7 11 9 -3 9 -24 0 -32 34 -18 76 11 32 10
38 -9 58 -12 12 -21 27 -21 33 0 18 37 25 59 11 18 -11 24 -8 52 25 17 20 39
37 48 37 10 0 23 14 31 35 12 31 30 47 30 28 1 -19 -56 -123 -65 -120 -5 2
-15 -7 -22 -21 -32 -61 2 -80 48 -27 18 20 43 41 56 46 14 5 21 13 18 19 -3 5
1 10 9 10 20 0 20 1 -9 -66 -14 -31 -25 -63 -25 -70 0 -8 -8 -14 -17 -14 -17
0 -35 -24 -71 -94 -13 -26 -16 -27 -27 -13 -7 10 -14 17 -17 17 -8 0 -46 -93
-53 -130 -4 -19 -12 -41 -19 -49 -8 -11 -8 -13 0 -10 19 7 94 78 94 89 0 5 4
10 9 10 6 0 5 -15 -1 -37 -7 -27 -7 -38 1 -41 16 -5 13 -22 -4 -22 -9 0 -20
-20 -30 -52 -8 -28 -25 -62 -36 -74 -14 -15 -22 -37 -23 -61 -1 -34 -4 -39
-31 -43 -28 -5 -30 -7 -27 -45 5 -50 7 -52 32 -30 19 18 20 17 19 -6 -1 -48
-26 -169 -39 -184 -8 -10 -11 -30 -7 -56 l5 -40 -50 3 c-48 3 -50 4 -65 43 -8
22 -18 70 -23 107 -6 61 -21 98 -39 98 -11 0 -31 -62 -24 -73 3 -6 1 -7 -4 -4
-7 4 -10 -5 -8 -26 2 -17 -2 -38 -8 -46 -9 -10 -7 -16 6 -26 9 -7 17 -19 17
-27 0 -14 71 -78 86 -78 4 0 16 -7 26 -17 16 -14 18 -14 18 -1 0 9 7 18 15 22
11 4 15 -1 15 -19 0 -13 8 -31 17 -41 16 -15 18 -39 18 -188 0 -112 7 -208 18
-276 22 -136 22 -157 2 -140 -8 7 -15 9 -15 4 0 -4 -7 1 -15 12 -17 23 -20 3
-4 -28 7 -13 7 -18 1 -14 -6 3 -13 2 -17 -4 -9 -15 -35 -12 -35 4 0 7 -10 25
-21 40 -19 24 -20 31 -9 51 7 13 10 35 6 49 -6 23 -3 26 19 26 16 0 25 6 25
15 0 8 -9 15 -20 15 -11 0 -20 6 -20 13 0 14 -52 77 -64 77 -20 0 -45 -46 -40
-72 4 -21 0 -29 -17 -39 -19 -10 -25 -9 -35 6 -11 15 -10 24 2 53 8 20 21 44
29 52 20 22 8 31 -32 24 -24 -5 -33 -3 -34 7 -2 20 -18 -84 -24 -161 -4 -36
-10 -92 -16 -125 -5 -33 -11 -87 -14 -120 -3 -33 -8 -80 -12 -105 -9 -57 -10
-71 -17 -205 -3 -60 -9 -135 -12 -165 -4 -30 -7 -125 -7 -210 0 -85 -3 -159
-7 -165 -4 -5 -5 -35 -1 -65 4 -30 6 -125 5 -210 -1 -85 1 -159 4 -164 3 -5 6
-29 7 -55 3 -68 4 -71 20 -71 8 0 15 -5 15 -11 0 -6 7 -17 16 -26 13 -13 46
-16 192 -17 105 -1 180 -5 184 -11 5 -7 8 -7 8 0 0 6 76 11 203 12 280 3 426
10 459 24 15 6 38 9 51 5 13 -3 27 -3 30 0 3 3 45 8 94 10 48 2 99 7 113 10
14 3 34 7 45 9 11 1 41 6 68 10 47 7 47 7 47 46 0 22 4 47 9 57 5 9 15 32 22
50 8 22 25 40 50 53 22 11 39 25 39 31 0 6 3 9 6 5 3 -3 18 -1 32 4 22 7 27
16 27 42 0 18 5 32 13 33 6 1 13 3 15 4 1 1 15 3 32 4 22 1 30 7 35 25 8 36
32 47 59 29 22 -15 22 -16 -22 -42 -30 -17 -49 -36 -56 -57 -13 -38 -11 -40
38 -55 35 -10 38 -9 34 7 -4 14 0 16 16 12 12 -3 27 -1 34 5 7 6 21 6 35 1 20
-8 23 -14 17 -40 l-7 -31 27 15 c25 13 28 19 31 81 2 66 2 68 -21 62 -17 -4
-27 0 -40 20 -16 24 -16 26 2 40 28 22 57 13 61 -17 2 -21 7 -26 22 -22 11 3
17 10 14 15 -3 5 3 4 15 -4 17 -11 25 -10 50 5 18 10 32 13 36 8 4 -7 15 -7
30 -1 14 5 25 7 25 4 0 -4 7 -1 15 6 8 6 30 15 49 20 31 7 35 5 40 -16 8 -30
23 -30 77 1 61 33 82 20 45 -28 -16 -21 -26 -45 -24 -58 3 -19 10 -22 61 -25
53 -2 59 0 69 22 8 16 20 24 36 24 23 0 24 -2 19 -45 -5 -52 10 -95 34 -95 13
0 17 10 17 45 2 66 19 88 64 82 20 -3 39 -2 43 1 3 3 12 7 20 8 19 3 20 -22 1
-29 -19 -8 -39 -73 -32 -103 7 -27 33 -33 42 -9 4 10 14 13 29 9 18 -4 27 0
40 19 36 56 107 35 99 -29 l-4 -34 70 0 c107 0 85 -23 -45 -46 -47 -8 -72 -19
-102 -47 -27 -24 -39 -18 -23 12 7 15 7 21 0 21 -6 0 -13 -7 -17 -16 -3 -8
-12 -13 -19 -10 -7 3 -27 0 -44 -5 -24 -9 -35 -8 -55 5 -13 9 -30 13 -38 10
-8 -3 -27 -6 -42 -7 -16 -1 -30 -8 -32 -14 -3 -8 7 -11 32 -9 20 1 38 -1 41
-5 2 -4 12 -8 22 -7 22 0 111 -10 141 -16 52 -11 232 -28 246 -22 7 2 15 1 17
-5 3 -9 35 -14 153 -24 33 -3 80 -8 105 -12 69 -10 85 -11 225 -18 72 -3 141
-8 155 -12 14 -3 102 -8 195 -10 94 -3 181 -5 195 -6 14 0 59 1 100 2 41 2 83
0 92 -4 9 -4 23 -3 29 1 19 11 149 11 149 -1 0 -7 3 -7 8 0 4 6 36 10 72 10
36 0 81 2 102 6 43 7 97 47 97 72 1 9 4 17 9 17 4 0 7 72 6 160 0 88 3 160 8
160 4 0 5 6 3 13 -10 26 -12 216 -2 226 5 5 6 15 2 21 -4 7 -8 80 -10 163 -1
84 -6 195 -11 247 -5 52 -9 100 -9 105 0 6 -4 13 -10 17 -6 5 -6 8 2 8 12 0 7
150 -6 160 -3 3 -6 21 -7 40 -1 48 -17 221 -28 290 -9 62 -16 123 -21 187 -4
34 -10 75 -15 92 -6 21 -5 31 3 35 8 3 9 7 2 13 -5 4 -11 17 -12 28 -1 11 -5
40 -9 65 -3 25 -6 53 -6 62 1 30 -14 29 -43 -2 -27 -28 -33 -30 -109 -30 -65
0 -92 5 -133 25 -65 29 -69 53 -17 84 19 12 32 26 29 31 -10 16 3 12 33 -10
15 -10 52 -22 82 -25 40 -5 51 -4 40 4 -8 6 -24 8 -35 4 -34 -10 35 43 79 61
49 20 46 21 46 -13 0 -17 5 -33 11 -37 8 -4 9 12 4 57 -4 35 -8 76 -10 92 -1
15 -5 30 -9 34 -9 9 -8 53 2 53 4 0 8 19 8 43 0 23 4 68 8 100 9 62 4 69 -24
34 -14 -18 -36 -26 -98 -36 -91 -15 -150 -8 -187 21 l-26 20 32 24 c37 27 50
44 43 56 -3 4 11 1 30 -7 47 -20 69 -19 91 5 17 19 17 21 -7 52 -47 63 -41
104 17 110 29 3 30 2 29 -42 -1 -25 -5 -56 -9 -68 l-8 -24 41 21 c52 27 52 26
52 -7 0 -15 9 -35 20 -45 20 -17 20 -17 17 18 -3 20 0 38 5 41 5 3 7 12 4 19
-2 7 -2 16 2 19 3 4 7 14 8 24 1 9 5 40 8 67 8 60 12 96 21 195 3 41 10 95 15
120 11 53 23 219 21 274 -1 21 2 43 7 50 5 6 9 18 9 26 0 8 4 69 8 135 10 151
15 392 11 515 -1 36 1 84 5 108 3 23 3 42 0 42 -4 0 -5 50 -4 112 2 122 -3
140 -53 182 -24 20 -46 27 -100 32 -104 9 -283 11 -278 2 3 -4 -7 -3 -21 2
-28 11 -215 7 -234 -4 -6 -4 -11 -2 -11 4 0 8 -13 10 -37 6 -42 -7 -105 -7
-173 -3 -25 2 -64 0 -87 -4z m-2547 -286 c-3 -4 -6 -1 -6 6 0 7 -4 9 -10 6 -6
-4 -7 1 -3 11 6 15 7 15 15 -1 6 -9 7 -19 4 -22z m-16 -8 c0 -2 -9 -3 -19 -2
-11 0 -18 5 -15 9 4 6 34 0 34 -7z m1588 -1 c104 -17 108 -18 151 -60 24 -24
47 -44 51 -44 14 0 19 -27 7 -39 -17 -17 -29 -13 -23 7 5 14 -1 17 -29 18 -39
1 -41 -2 -19 -27 10 -11 12 -19 5 -24 -6 -3 -11 1 -11 9 0 11 -10 16 -31 16
-16 0 -28 4 -24 9 13 22 -32 31 -79 17 -43 -13 -46 -13 -46 5 0 24 -45 27 -54
3 -9 -24 -7 -44 4 -44 6 0 9 5 8 12 -2 6 6 14 16 16 18 4 19 3 3 -13 -15 -14
-24 -55 -13 -55 16 0 36 14 36 26 0 18 10 17 34 -1 19 -14 19 -15 1 -35 -12
-13 -25 -18 -41 -14 -19 5 -26 1 -34 -22 -14 -36 -2 -47 52 -48 41 -1 43 0 40
25 -1 17 3 29 13 33 9 3 14 10 11 15 -3 5 1 24 9 42 l16 34 -6 -37 c-4 -29 -3
-37 7 -33 21 8 53 -19 42 -36 -5 -8 -9 -18 -11 -24 -1 -5 -5 -20 -9 -32 -6
-23 9 -32 21 -13 12 20 26 10 15 -10 -10 -19 -6 -23 34 -41 26 -11 46 -25 46
-32 0 -14 -72 -19 -81 -5 -3 5 -35 10 -72 11 -59 2 -64 4 -56 19 13 24 -6 58
-32 58 -11 0 -22 -7 -25 -15 -4 -10 -11 -12 -23 -6 -9 5 -44 10 -76 11 -114 2
-115 2 -115 21 0 21 -35 43 -56 35 -7 -3 -11 -12 -8 -21 5 -12 -5 -15 -57 -17
-93 -2 -111 -4 -137 -12 -19 -6 -22 -4 -20 15 4 31 -35 51 -89 46 -38 -4 -43
-2 -43 15 0 11 -8 22 -19 25 -10 2 -25 19 -34 37 -16 35 -54 50 -96 39 -18 -5
-21 -1 -21 26 0 18 4 30 10 26 5 -3 6 -13 3 -23 -6 -15 -5 -15 10 -3 9 7 17
20 17 27 0 11 16 14 65 14 54 0 66 3 75 20 8 15 17 19 35 14 18 -4 27 -1 31
10 3 9 11 16 16 16 6 0 8 -6 5 -13 -4 -11 9 -10 62 4 56 15 159 25 404 38 16
0 76 -6 135 -15z m-732 -23 c-7 -11 -56 -21 -56 -10 0 6 13 11 53 18 5 0 6 -3
3 -8z m-106 -21 c0 -5 -5 -10 -11 -10 -5 0 -7 5 -4 10 3 6 8 10 11 10 2 0 4
-4 4 -10z m-790 -25 c0 -18 -5 -25 -20 -25 -20 0 -28 28 -13 43 15 16 33 6 33
-18z m297 -15 c20 -20 37 -28 47 -24 16 6 66 -29 66 -47 0 -4 -21 -10 -47 -14
-26 -4 -73 -20 -105 -36 -32 -16 -64 -29 -71 -29 -8 0 -20 -7 -27 -15 -18 -22
-30 -18 -30 10 0 31 -36 54 -43 27 -4 -13 -5 -12 -6 5 -1 16 -6 21 -16 17 -10
-4 -15 0 -15 15 0 12 -4 21 -10 21 -14 0 -12 47 3 57 21 14 107 31 113 22 8
-13 36 -11 64 5 36 20 43 19 77 -14z m1603 -39 c0 -20 -17 -37 -27 -28 -7 8 7
47 18 47 5 0 9 -9 9 -19z m-1360 -21 c0 -5 -5 -10 -11 -10 -5 0 -7 5 -4 10 3
6 8 10 11 10 2 0 4 -4 4 -10z m80 -20 c0 -23 15 -25 50 -5 39 22 59 17 23 -6
-18 -12 -33 -28 -33 -37 0 -13 4 -11 16 6 19 27 38 28 64 2 16 -16 28 -19 59
-14 35 6 40 3 66 -30 21 -28 32 -35 50 -30 16 4 24 0 29 -13 3 -10 8 -23 12
-30 6 -13 -30 -23 -89 -25 -21 -1 -40 -5 -43 -10 -9 -15 -37 -9 -30 7 3 8 -2
21 -10 29 -14 15 -29 15 -101 0 -14 -2 -37 8 -66 30 -24 19 -55 37 -68 41 -22
7 -22 8 -4 21 10 8 15 14 10 14 -4 0 -1 8 7 18 8 9 18 25 21 35 9 24 37 22 37
-3z m200 10 c0 -5 -4 -10 -10 -10 -5 0 -10 5 -10 10 0 6 5 10 10 10 6 0 10 -4
10 -10z m-330 -21 c0 -7 10 -9 25 -5 29 7 29 6 13 -29 -14 -32 -25 -32 -40 0
-6 14 -15 25 -20 25 -4 0 -8 5 -8 10 0 6 7 10 15 10 8 0 15 -5 15 -11z m1300
-43 c0 -8 -4 -18 -10 -21 -5 -3 -10 3 -10 14 0 12 5 21 10 21 6 0 10 -6 10
-14z m720 -1 c9 -11 22 -14 41 -10 25 6 30 2 49 -34 21 -43 37 -50 59 -28 11
10 13 7 9 -15 -3 -16 -1 -28 3 -28 5 0 9 -7 9 -16 0 -12 -7 -14 -32 -9 -18 4
-37 14 -41 21 -4 8 -16 14 -25 14 -10 0 -28 7 -40 16 -14 9 -43 16 -72 16 -59
-1 -84 20 -48 39 13 7 29 20 36 31 16 22 35 23 52 3z m-2496 -50 c16 -12 17
-17 6 -30 -9 -10 -23 -15 -38 -12 -18 3 -32 -3 -48 -21 -33 -34 -30 -40 16
-38 27 2 51 12 78 33 l39 31 32 -20 c30 -19 31 -22 14 -32 -10 -6 -20 -11 -23
-11 -16 -1 -81 -33 -117 -57 -23 -15 -46 -28 -52 -28 -5 0 -18 -11 -29 -25
l-20 -26 -12 36 c-8 23 -18 35 -30 35 -10 0 -22 9 -25 20 -3 11 -15 20 -25 20
-26 0 -33 48 -8 56 14 4 17 11 12 27 -16 52 -16 53 -1 35 9 -12 34 -20 73 -23
53 -5 62 -3 89 19 35 29 43 31 69 11z m346 -5 c0 -11 5 -20 11 -20 6 0 9 -5 7
-11 -2 -6 -20 -12 -41 -14 -20 -1 -34 1 -32 5 2 4 9 19 14 34 12 31 41 35 41
6z m1540 -5 c13 -14 22 -26 19 -27 -43 -27 -51 -29 -65 -17 -10 8 -12 15 -4
23 5 5 10 18 10 28 0 25 12 23 40 -7z m-1392 -34 c35 13 72 -6 72 -38 0 -19 5
-23 29 -23 17 0 33 -4 36 -10 3 -5 20 -10 38 -10 46 0 21 -19 -55 -40 -34 -10
-71 -21 -80 -25 -14 -5 -18 -2 -18 14 0 22 -34 64 -44 54 -3 -4 -6 -15 -6 -25
0 -15 -5 -18 -19 -13 -13 4 -23 0 -29 -10 -7 -14 -15 -15 -49 -6 -22 6 -48 20
-59 32 -19 21 -19 21 11 45 35 28 45 30 45 9 0 -8 7 -15 15 -15 9 0 15 9 15
24 0 14 7 31 15 40 8 8 15 20 15 27 0 6 9 0 20 -14 18 -23 24 -25 48 -16z
m1465 19 c3 -11 2 -18 -2 -15 -8 5 -31 -38 -31 -57 0 -8 26 -9 85 -4 47 3 85
2 85 -2 0 -5 -11 -19 -25 -32 -23 -22 -26 -22 -38 -6 -12 16 -14 15 -35 -9
-23 -26 -31 -48 -10 -27 7 7 20 12 30 12 15 0 16 -4 7 -23 -12 -27 -49 -53
-58 -40 -3 5 -18 16 -33 26 -18 11 -26 23 -23 37 6 30 -24 25 -35 -6 -6 -14
-7 -36 -4 -50 9 -37 -1 -52 -31 -46 -20 3 -25 9 -22 23 8 29 -23 8 -64 -42
-19 -24 -47 -58 -63 -77 -24 -28 -27 -35 -15 -44 11 -8 11 -9 -3 -4 -10 3 -23
-1 -30 -9 -7 -7 -38 -40 -69 -72 -31 -32 -107 -116 -169 -188 -62 -71 -145
-164 -184 -205 -39 -41 -98 -106 -131 -145 -33 -38 -78 -90 -101 -115 -22 -25
-51 -57 -64 -72 -25 -29 -50 -37 -50 -15 0 6 19 32 43 57 80 86 139 151 331
370 65 74 156 176 201 225 45 50 100 110 121 135 22 25 60 67 85 95 26 27 79
88 119 135 40 47 80 89 89 94 20 12 50 48 51 61 0 11 28 55 34 55 2 0 6 -9 9
-20z m-2243 -10 c0 -11 -7 -20 -15 -20 -8 0 -15 9 -15 20 0 11 7 20 15 20 8 0
15 -9 15 -20z m545 0 c-3 -5 -11 -10 -16 -10 -6 0 -7 5 -4 10 3 6 11 10 16 10
6 0 7 -4 4 -10z m720 -10 c3 -5 -1 -10 -9 -10 -9 0 -16 5 -16 10 0 6 4 10 9
10 6 0 13 -4 16 -10z m1184 -57 c-7 -10 -18 -23 -24 -28 -17 -17 -176 -195
-245 -275 -35 -41 -108 -122 -160 -180 -53 -58 -143 -159 -200 -225 -57 -66
-106 -122 -109 -125 -9 -8 -172 -190 -210 -235 -102 -121 -176 -195 -194 -195
-19 0 -19 0 0 18 11 9 40 42 64 72 24 30 69 82 100 115 31 33 101 112 155 175
54 63 133 150 174 195 41 44 128 141 192 215 64 74 137 158 163 185 26 28 68
75 93 105 97 115 155 175 181 187 35 16 36 16 20 -4z m-2069 -58 c0 -7 8 -18
18 -24 19 -11 15 -13 -41 -25 -28 -7 -28 -6 -12 18 9 14 14 30 10 36 -3 5 1
10 9 10 9 0 16 -7 16 -15z m2472 -13 c12 -10 16 -23 11 -39 -3 -16 -1 -28 8
-34 12 -7 11 -9 -2 -9 -8 0 -24 7 -35 15 -10 8 -31 15 -46 15 -39 0 -41 13 -7
48 31 32 39 32 71 4z m-2351 -8 c9 -26 10 -26 30 -8 25 22 55 8 52 -24 -2 -18
5 -21 65 -27 66 -7 102 -19 102 -33 0 -9 -49 -32 -67 -32 -8 0 -26 -6 -41 -14
-46 -23 -82 -28 -82 -12 0 8 -6 21 -13 28 -7 7 -16 22 -21 33 -6 16 -9 17 -16
5 -6 -8 -10 -26 -10 -39 0 -48 -70 -67 -131 -35 l-30 15 23 18 c13 10 26 18
29 17 14 -2 49 38 49 56 0 16 37 78 47 78 2 0 8 -12 14 -26z m2580 -43 c23
-19 35 -79 24 -128 -6 -26 -45 -32 -45 -8 0 26 -47 65 -77 65 -25 1 -26 2 -10
14 9 7 17 16 17 20 0 8 52 55 61 56 4 0 17 -8 30 -19z m-2681 -21 c0 -5 -5
-10 -11 -10 -5 0 -7 5 -4 10 3 6 8 10 11 10 2 0 4 -4 4 -10z m-83 -6 c-3 -3
-12 -4 -19 -1 -8 3 -5 6 6 6 11 1 17 -2 13 -5z m987 -2 c9 -14 -23 -45 -40
-38 -16 6 -15 8 1 26 19 21 31 25 39 12z m-210 -28 c11 -29 6 -44 -13 -44 -27
0 -34 15 -19 40 15 24 24 25 32 4z m126 -11 c0 -5 -14 -16 -30 -25 -17 -9 -30
-23 -30 -30 1 -8 6 -6 15 5 20 28 51 18 47 -16 -2 -17 2 -27 10 -28 7 0 0 -5
-16 -10 -35 -10 -49 -1 -66 41 -7 17 -19 30 -27 30 -23 0 -9 24 18 31 34 10
79 10 79 2z m-1460 -19 c0 -17 -22 -14 -28 4 -2 7 3 12 12 12 9 0 16 -7 16
-16z m361 5 c19 -10 19 -11 -3 -39 -13 -16 -29 -29 -36 -29 -19 -1 -86 -46
-131 -89 l-41 -39 -16 26 c-9 14 -24 33 -34 41 -21 18 -45 99 -33 111 5 5 29
5 53 1 40 -7 45 -11 42 -33 -2 -22 1 -25 28 -23 19 1 52 18 83 43 57 45 60 46
88 30z m1269 -14 c0 -8 -2 -15 -4 -15 -2 0 -6 7 -10 15 -3 8 -1 15 4 15 6 0
10 -7 10 -15z m-506 -10 c-4 -8 -10 -15 -15 -15 -5 0 -9 7 -9 15 0 8 7 15 15
15 9 0 12 -6 9 -15z m121 -15 c-10 -11 -24 -20 -31 -20 -7 0 -20 -7 -28 -15
-13 -13 -20 -14 -38 -4 -22 12 -21 13 27 35 28 13 59 23 69 23 18 1 18 0 1
-19z m435 12 c0 -5 -9 -17 -20 -27 -20 -18 -25 -11 -14 19 6 17 34 23 34 8z
m-1280 -22 c0 -11 7 -20 15 -20 8 0 15 -4 15 -10 0 -5 -6 -10 -13 -10 -8 0
-24 -11 -36 -24 -19 -20 -20 -24 -6 -30 9 -3 13 -10 10 -16 -8 -13 -16 -12
-40 6 -18 13 -18 17 -5 27 25 20 41 57 35 78 -4 13 -2 19 9 19 9 0 16 -9 16
-20z m114 -6 c12 -11 25 -14 47 -9 28 6 30 5 25 -13 -4 -11 1 -28 12 -41 17
-22 19 -22 75 -8 31 8 57 11 57 7 0 -5 -21 -23 -47 -41 -27 -18 -58 -41 -70
-52 -22 -19 -23 -20 -29 -1 -4 10 -20 31 -36 46 l-28 27 0 -41 c0 -67 -41 -92
-117 -72 -22 6 -22 7 12 52 19 24 35 49 35 53 0 14 -28 10 -33 -3 -2 -7 -8
-10 -12 -6 -9 8 39 58 55 58 5 0 12 -11 16 -25 3 -14 10 -25 15 -25 18 0 21
30 5 55 -29 44 -16 73 18 39z m1743 -6 c-3 -8 -6 -5 -6 6 -1 11 2 17 5 13 3
-3 4 -12 1 -19z m83 -5 c0 -13 3 -13 15 -3 30 25 15 -14 -20 -54 -43 -48 -54
-42 -25 14 12 23 19 48 16 56 -3 9 -1 12 4 9 6 -3 10 -13 10 -22z m1077 1 c7
-18 -31 -53 -56 -54 -10 0 -8 7 7 23 12 13 22 29 22 35 0 18 20 15 27 -4z
m-3359 -22 c2 -15 -2 -22 -12 -22 -9 0 -16 4 -16 9 0 5 -3 17 -6 26 -5 13 -2
16 12 13 11 -2 20 -13 22 -26z m1200 8 c16 -27 53 -41 69 -28 16 13 63 -16 63
-38 0 -9 11 -25 25 -36 30 -23 24 -38 -15 -38 -16 0 -32 -4 -35 -10 -8 -13
-25 -13 -25 1 0 18 -41 70 -51 64 -5 -4 -9 -1 -9 5 0 7 -6 10 -14 7 -16 -6
-66 35 -66 54 0 11 28 38 40 39 3 0 11 -9 18 -20z m252 0 c0 -5 -5 -10 -11
-10 -5 0 -7 5 -4 10 3 6 8 10 11 10 2 0 4 -4 4 -10z m67 2 c11 -7 17 -26 14
-48 0 -6 -10 -23 -22 -38 -19 -24 -22 -25 -37 -10 -40 41 -1 126 45 96z m1333
-38 c0 -12 -48 -29 -57 -20 -9 9 7 57 17 51 6 -3 10 0 10 7 1 16 30 -21 30
-38z m-641 9 c-2 -42 -15 -66 -37 -69 -28 -5 -30 22 -2 31 15 5 19 12 14 31
-5 18 -2 24 10 24 9 0 16 -8 15 -17z m1281 -28 c10 -13 9 -15 -8 -15 -15 0
-20 5 -16 15 4 8 7 15 9 15 1 0 8 -7 15 -15z m-780 -5 c0 -5 -4 -10 -10 -10
-5 0 -10 5 -10 10 0 6 5 10 10 10 6 0 10 -4 10 -10z m181 -36 c-12 -15 -21
-21 -21 -15 0 17 34 61 38 50 2 -5 -6 -21 -17 -35z m384 -10 c19 -36 19 -36 0
-50 -11 -8 -28 -21 -39 -30 -17 -15 -22 -14 -58 2 -21 10 -41 21 -44 25 -2 4
15 21 38 38 23 17 38 31 32 31 -15 0 20 20 36 20 9 0 24 -16 35 -36z m-636
-43 c-25 -21 -59 -28 -59 -12 0 15 27 32 43 25 8 -3 18 0 22 6 4 6 9 9 12 6 3
-3 -5 -14 -18 -25z m916 19 c-3 -5 -13 -10 -21 -10 -8 0 -12 5 -9 10 3 6 13
10 21 10 8 0 12 -4 9 -10z m-689 -8 c16 -11 33 -67 24 -82 -4 -7 -6 -20 -3
-29 2 -9 -5 -26 -17 -36 -21 -19 -23 -19 -35 -2 -8 11 -26 17 -49 17 -21 0
-36 3 -34 8 2 4 13 28 25 53 12 26 32 54 44 63 26 18 30 19 45 8z m652 -37
c21 -46 15 -71 -22 -89 -41 -19 -86 -21 -110 -3 -17 12 -15 16 26 59 64 65 88
72 106 33z m-3237 -7 c6 -12 16 -27 20 -32 5 -6 18 -23 30 -38 24 -33 44 -35
84 -8 57 38 62 19 9 -31 -20 -19 -46 -43 -57 -55 l-20 -21 -39 39 c-21 21 -38
45 -38 53 0 24 -33 82 -38 67 -3 -9 -8 -10 -17 -2 -19 16 -24 -19 -8 -58 10
-26 18 -32 32 -27 28 8 40 -65 17 -100 -17 -25 -23 -28 -86 -29 -31 -1 -35 -4
-32 -26 1 -14 13 -36 26 -49 l24 -24 37 23 c49 30 64 15 30 -31 -13 -19 -33
-46 -43 -61 l-19 -28 -23 25 c-13 14 -32 25 -42 25 -15 0 -18 -7 -16 -34 3
-44 -24 -83 -62 -91 -34 -8 -36 -12 -16 -60 17 -40 22 -41 54 -19 34 24 39 9
14 -39 -12 -23 -22 -48 -22 -54 0 -17 -10 -16 -34 2 -21 16 -66 21 -66 8 0 -5
5 -15 10 -23 8 -12 10 -12 10 -1 0 8 2 12 5 9 9 -8 -34 -95 -50 -102 -8 -3
-15 -15 -15 -27 0 -21 -1 -21 -18 -6 -10 9 -33 20 -50 23 -28 6 -32 4 -32 -14
0 -12 5 -24 10 -27 6 -3 10 -18 10 -33 l1 -27 23 27 c26 30 55 32 74 5 11 -14
17 -16 28 -6 26 22 34 -3 18 -58 l-15 -51 -27 14 c-15 8 -37 14 -50 14 -19 0
-21 -3 -12 -20 15 -29 1 -98 -24 -115 -27 -20 -53 -19 -65 2 -19 34 -23 3 -5
-36 19 -42 28 -48 39 -31 3 6 19 10 34 10 39 0 67 -36 70 -88 2 -40 0 -42 -18
-33 -11 6 -36 11 -57 11 -31 0 -35 -2 -24 -15 7 -8 15 -13 19 -10 4 2 6 -8 3
-24 -2 -17 2 -32 12 -40 9 -8 16 -20 16 -29 0 -13 -2 -13 -17 -1 -16 13 -21
11 -48 -17 -38 -39 -35 -64 8 -65 64 -2 81 -12 94 -59 7 -24 11 -46 8 -48 -3
-3 -16 0 -30 6 -34 16 -58 15 -53 0 3 -7 9 -13 14 -13 21 -1 41 -22 46 -46 4
-22 1 -25 -14 -21 -10 2 -18 8 -18 13 0 5 -7 9 -15 9 -9 0 -15 -9 -15 -25 0
-14 -7 -37 -16 -50 -22 -33 -7 -52 53 -67 33 -8 50 -19 64 -42 25 -41 24 -50
-3 -41 -52 17 -101 -2 -79 -30 15 -18 19 -101 6 -118 -7 -10 -26 -17 -46 -17
-30 0 -31 1 -14 13 14 11 15 16 5 22 -7 4 -16 2 -21 -6 -13 -20 -12 26 2 74
14 53 5 79 -27 71 -30 -8 -77 3 -69 16 3 6 16 10 28 10 19 0 67 52 67 72 0 4
-10 8 -22 10 -18 2 -24 10 -26 40 -3 34 -6 37 -43 43 -48 8 -47 29 1 32 38 2
56 17 65 54 6 25 4 26 -40 31 -25 3 -48 8 -51 11 -10 10 7 27 26 27 16 0 17 4
11 28 -6 19 -4 31 5 40 8 7 14 28 14 46 l0 34 -45 -6 c-48 -5 -53 1 -35 43 8
18 9 19 9 1 1 -12 6 -16 17 -12 8 3 13 2 10 -3 -3 -5 6 -8 20 -8 22 0 25 3 21
24 -4 20 -1 24 14 20 20 -5 39 18 39 48 0 14 -2 14 -24 0 -23 -16 -25 -15 -37
7 -6 13 -17 26 -23 31 -7 5 -5 12 7 21 9 7 17 20 17 28 0 9 14 50 31 92 25 62
28 80 19 91 -22 26 -15 87 17 156 31 66 50 83 77 73 10 -4 20 6 29 28 8 19 31
58 52 86 36 51 37 53 21 77 -10 16 -26 25 -41 25 -27 0 -31 -13 -15 -54 7 -18
5 -33 -5 -53 -8 -15 -15 -35 -15 -45 0 -14 -4 -14 -25 -5 -26 13 -39 33 -30
47 3 5 12 7 19 4 8 -3 17 -1 21 5 3 6 -1 11 -9 11 -11 0 -16 9 -16 29 0 16 -6
31 -15 35 -8 3 -15 11 -15 18 0 9 3 9 12 0 20 -20 33 -14 67 35 l34 47 23 -29
23 -29 23 48 c25 52 19 66 -33 66 -37 0 -40 7 -16 47 16 29 18 39 9 54 -16 26
-15 49 1 27 9 -11 18 -14 28 -7 21 13 25 11 37 -15 6 -15 7 -37 2 -60 -10 -47
1 -52 39 -17 39 36 39 53 0 84 -33 25 -32 22 -2 76 1 2 11 -7 22 -20 l19 -24
21 25 c33 39 52 78 41 85 -5 3 -25 3 -44 0 -44 -9 -51 5 -26 48 16 27 18 40
11 60 -7 17 -7 28 -1 32 6 4 13 -1 16 -9 8 -22 43 -20 79 3 39 25 42 25 56 -1z
m1860 -1 c-10 -9 -11 -8 -5 6 3 10 9 15 12 12 3 -3 0 -11 -7 -18z m-2086 -84
c-24 -38 -49 -67 -55 -65 -7 1 -9 -5 -5 -17 5 -17 2 -20 -21 -18 -21 2 -33 -6
-49 -30 l-22 -31 -42 45 c-34 36 -42 50 -37 69 5 17 0 34 -14 54 -20 28 -20
29 -2 39 13 7 22 7 30 -1 9 -9 18 -8 37 0 14 7 28 12 32 12 6 0 -1 -48 -12
-72 -6 -15 -2 -17 25 -14 20 2 47 18 73 44 38 36 58 47 94 51 7 0 -7 -29 -32
-66z m-306 44 c12 -15 5 -27 -16 -27 -7 0 -13 9 -13 20 0 23 13 26 29 7z
m3289 -79 c2 -19 -2 -27 -19 -31 -34 -9 -41 1 -23 34 18 35 38 34 42 -3z m428
0 c4 -6 2 -14 -4 -16 -7 -2 -12 -15 -12 -28 0 -13 -4 -24 -9 -24 -5 0 -16 -3
-25 -6 -11 -4 -16 0 -16 12 0 16 2 16 10 4 7 -11 11 -4 16 28 6 41 25 55 40
30z m-1033 -47 c3 -14 -2 -21 -20 -26 -34 -8 -40 1 -18 25 23 25 31 25 38 1z
m672 -8 c-7 -20 -65 -70 -65 -56 0 10 64 83 68 78 2 -2 1 -12 -3 -22z m-295
-15 c11 -18 20 -36 20 -39 0 -11 -93 -30 -102 -21 -4 4 3 19 17 32 14 13 25
32 25 42 0 28 18 21 40 -14z m500 -18 c-44 -42 -48 -37 -9 11 18 23 35 37 37
30 2 -6 -11 -25 -28 -41z m-1037 -23 c-1 -15 3 -27 9 -27 6 0 6 -6 -2 -15 -23
-28 -37 -17 -37 30 0 37 4 45 16 43 11 -3 15 -13 14 -31z m1244 -2 c-4 -8 -11
-15 -17 -15 -7 0 -7 6 0 21 13 23 26 19 17 -6z m183 1 c0 -7 3 -28 6 -45 6
-29 5 -31 -25 -31 -28 0 -31 3 -31 29 0 29 22 61 41 61 5 0 9 -6 9 -14z m-640
-35 c16 -31 12 -58 -13 -78 -12 -10 -28 -30 -34 -45 -7 -16 -17 -28 -23 -28
-13 0 -13 17 0 25 21 13 9 27 -18 22 -15 -3 -34 -2 -42 3 -22 14 -1 64 29 68
17 3 22 9 18 22 -9 34 65 43 83 11z m-670 -12 c0 -11 -3 -18 -7 -16 -5 2 -16
7 -26 10 -22 8 -13 27 14 27 13 0 19 -7 19 -21z m1067 3 c-21 -23 -21 -32 -3
-32 13 0 26 -20 26 -40 0 -15 -64 -47 -104 -53 -33 -5 -46 -2 -74 19 l-34 26
31 32 c17 18 29 35 26 37 -3 3 20 4 50 1 44 -4 56 -1 61 12 3 9 13 16 22 16
13 0 13 -2 -1 -18z m-3857 -13 c0 -5 -7 -5 -17 -2 -10 4 -14 2 -10 -4 5 -7 0
-9 -12 -6 -15 4 -17 8 -8 18 12 13 47 9 47 -6z m3940 -32 l-34 -32 30 36 c16
20 31 34 33 32 3 -2 -10 -18 -29 -36z m-2370 29 c0 -2 -7 -9 -15 -16 -13 -11
-14 -10 -9 4 5 14 24 23 24 12z m1299 -15 c26 -26 33 -54 19 -72 -18 -21 -85
-69 -97 -69 -5 0 -11 -10 -13 -22 -4 -29 -58 -40 -58 -13 0 9 9 19 20 22 15 4
18 11 14 28 -4 17 2 28 25 44 25 18 30 27 25 47 -7 26 10 54 32 54 8 0 23 -9
33 -19z m1308 -31 c-3 -11 -2 -20 1 -20 10 0 31 -71 25 -86 -2 -7 -15 -15 -28
-18 -13 -3 -30 -9 -39 -12 -13 -5 -14 1 -10 37 3 24 8 47 11 52 3 5 -4 4 -15
-2 -27 -14 -32 -14 -32 3 0 8 19 26 43 40 51 31 51 31 44 6z m-4181 -30 c-2
-17 -5 -32 -7 -33 -2 -1 -14 -8 -26 -14 -45 -26 -58 -6 -24 35 11 12 26 22 35
22 9 0 16 5 16 10 0 6 2 10 5 10 2 0 3 -14 1 -30z m2984 -20 c0 -13 -6 -16
-24 -13 -22 5 -23 8 -14 29 9 18 14 21 25 13 7 -6 13 -19 13 -29z m261 -19
c-17 -16 -31 -26 -31 -23 0 10 53 62 58 57 3 -2 -9 -18 -27 -34z m855 -13 c21
-66 4 -86 -78 -93 -54 -4 -98 12 -98 38 0 7 16 21 35 31 19 11 35 25 35 33 0
9 15 13 49 13 43 0 51 -3 57 -22z m-2835 -25 c-3 -20 -13 -38 -21 -40 -11 -3
-11 -2 -3 4 7 5 9 14 3 23 -5 8 -5 21 1 32 16 30 26 20 20 -19z m2323 21 c3
-9 6 -27 6 -41 0 -19 -4 -24 -16 -19 -9 3 -22 6 -30 6 -20 0 -18 47 4 59 24
14 29 13 36 -5z m-227 -65 c10 -26 9 -35 -4 -55 -13 -20 -23 -24 -68 -24 -69
0 -88 19 -51 53 14 13 26 29 26 35 0 12 21 19 60 21 20 1 28 -6 37 -30z m-469
-7 c2 -7 -2 -10 -12 -6 -9 3 -16 11 -16 16 0 13 23 5 28 -10z m601 1 c-6 -10
-23 -27 -37 -37 -21 -15 -20 -12 7 17 38 41 47 46 30 20z m151 -29 c-8 -14
-25 -30 -38 -35 l-23 -9 21 -22 c11 -12 20 -27 20 -34 0 -7 6 -14 12 -16 7 -3
-12 -17 -41 -32 -37 -18 -67 -26 -96 -25 -23 2 -47 -1 -54 -5 -15 -10 -41 11
-41 34 0 21 20 31 48 23 15 -3 23 3 33 26 10 23 23 33 47 37 23 5 37 15 45 33
6 14 23 36 37 48 32 27 49 14 30 -23z m-1340 22 c0 -8 7 -16 15 -20 22 -8 20
-56 -2 -56 -23 1 -54 65 -39 80 14 14 26 13 26 -4z m70 -1 c14 -16 10 -18 -14
-9 -9 3 -16 10 -16 15 0 14 16 11 30 -6z m1175 5 c3 -5 1 -10 -4 -10 -6 0 -11
5 -11 10 0 6 2 10 4 10 3 0 8 -4 11 -10z m-2297 -65 c-2 -50 1 -68 12 -75 13
-8 12 -11 -5 -24 -11 -9 -23 -16 -27 -16 -11 0 -10 68 1 75 5 3 7 21 4 40 -3
19 -3 41 0 50 13 31 18 13 15 -50z m116 20 c-26 -19 -31 -9 -8 16 11 12 20 16
22 9 2 -6 -4 -17 -14 -25z m1646 16 c25 -49 1 -85 -65 -96 -51 -10 -65 -21
-65 -55 0 -19 -7 -30 -25 -38 -56 -26 -99 -5 -60 28 8 7 15 24 15 37 0 18 4
24 14 20 19 -7 77 14 93 33 17 21 16 35 -2 20 -12 -10 -15 -9 -15 7 0 52 86
87 110 44z m714 -48 c5 -21 4 -33 -3 -33 -6 0 -11 10 -11 23 0 13 -5 28 -11
34 -7 7 -8 20 -4 30 7 17 7 17 15 -2 4 -11 11 -35 14 -52z m-2564 53 c0 -3 -4
-8 -10 -11 -5 -3 -10 -1 -10 4 0 6 5 11 10 11 6 0 10 -2 10 -4z m2753 -33 c31
12 50 -16 45 -65 -4 -35 -2 -47 12 -56 13 -8 21 -7 29 1 7 7 11 8 11 0 0 -6
-7 -16 -16 -24 -11 -9 -14 -22 -10 -44 5 -27 1 -37 -30 -69 l-37 -38 17 -32
c15 -26 15 -28 1 -11 -9 11 -20 26 -24 32 -3 7 -29 16 -56 20 -52 7 -105 37
-105 60 0 7 11 23 24 34 15 13 22 27 19 37 -5 12 -2 14 13 7 10 -5 39 -9 63
-9 62 -1 73 20 35 68 -26 33 -32 36 -64 31 -19 -4 -41 -12 -48 -17 -7 -6 -15
-8 -18 -5 -4 3 16 31 42 61 49 55 49 55 65 34 10 -12 23 -19 32 -15z m-2273
17 c0 -5 -5 -10 -11 -10 -5 0 -7 5 -4 10 3 6 8 10 11 10 2 0 4 -4 4 -10z
m-1064 -45 c-7 -23 -17 -35 -28 -35 -10 0 -18 5 -18 10 0 6 7 10 15 10 8 0 15
6 15 13 0 10 18 37 26 37 0 0 -4 -16 -10 -35z m3064 10 c0 -8 -4 -15 -10 -15
-5 0 -10 7 -10 15 0 8 5 15 10 15 6 0 10 -7 10 -15z m-2331 -25 c-13 -16 -25
-28 -27 -25 -5 5 37 55 45 55 2 0 -6 -13 -18 -30z m1541 26 c0 -2 -9 -6 -20
-9 -11 -3 -20 -1 -20 4 0 5 9 9 20 9 11 0 20 -2 20 -4z m238 -56 c3 -27 1 -32
-10 -23 -7 6 -21 12 -31 14 -16 4 -16 6 -1 27 21 31 38 23 42 -18z m-550 -3
c2 -11 -2 -14 -19 -10 -19 5 -21 3 -16 -19 5 -17 1 -31 -14 -46 -23 -26 -49
-29 -49 -6 0 9 -8 29 -17 45 -16 26 -16 31 -3 39 23 15 50 12 50 -5 0 -21 13
-19 28 6 14 23 35 21 40 -4z m-152 -40 c17 -10 9 -27 -12 -27 -22 0 -38 49
-22 68 11 13 13 12 16 -9 2 -13 10 -28 18 -32z m-427 7 c-10 -12 -14 -12 -20
-2 -17 26 -11 40 12 28 16 -9 18 -14 8 -26z m1759 -1 c-15 -15 -31 -24 -34
-20 -10 10 26 47 45 47 11 0 8 -7 -11 -27z m-2158 7 c0 -5 -4 -10 -10 -10 -5
0 -10 5 -10 10 0 6 5 10 10 10 6 0 10 -4 10 -10z m-70 -10 c0 -5 -5 -10 -11
-10 -5 0 -7 5 -4 10 3 6 8 10 11 10 2 0 4 -4 4 -10z m1624 -27 c-13 -9 -20
-10 -22 -3 -5 15 32 42 37 28 2 -6 -5 -17 -15 -25z m274 17 c16 -27 6 -43 -24
-37 -13 2 -36 -4 -51 -14 -48 -32 -50 -20 -3 25 52 51 60 54 78 26z m-1860 -9
c3 -8 -1 -12 -9 -9 -7 2 -15 10 -17 17 -3 8 1 12 9 9 7 -2 15 -10 17 -17z
m2563 -39 c-5 -10 -27 -23 -48 -30 l-38 -11 45 39 c44 39 61 40 41 2z m-2415
16 c-9 -5 -23 -5 -32 0 -12 6 -7 9 16 9 23 0 28 -3 16 -9z m98 -19 c14 -11 26
-27 26 -35 0 -8 4 -14 9 -14 14 0 231 -237 357 -390 7 -8 37 -44 68 -80 l55
-66 -11 -204 c-11 -232 -13 -246 -30 -248 -63 -7 -93 -19 -94 -37 -1 -11 -2
-26 -3 -32 -2 -19 -17 -15 -20 5 -2 9 -2 52 -2 95 1 42 -3 77 -8 77 -5 0 -12
-33 -16 -72 -3 -40 -9 -86 -12 -102 l-5 -30 -14 25 c-7 13 -14 20 -14 14 -1
-5 -6 1 -11 14 -8 19 -14 22 -38 18 -21 -4 -34 -1 -46 13 -20 22 -24 23 -44
11 -11 -7 -9 -15 10 -40 12 -17 19 -34 15 -38 -8 -8 -22 7 -78 78 -15 18 -25
26 -22 17 10 -29 -1 -21 -49 38 -29 35 -44 61 -41 72 5 13 4 14 -4 4 -7 -11
-15 -6 -33 20 -13 18 -49 64 -81 102 -32 39 -58 75 -58 80 0 6 -9 17 -19 23
-11 7 -27 28 -36 47 -9 20 -25 38 -36 41 -10 4 -18 11 -16 16 2 12 -94 138
-107 138 -5 1 -31 -23 -58 -51 -106 -112 -203 -219 -210 -232 -4 -7 -8 -53 -8
-102 -1 -84 -24 -311 -37 -362 -11 -46 -16 -10 -15 105 3 222 13 353 30 370 9
8 32 35 51 58 20 24 68 79 106 123 82 92 98 112 120 146 22 33 37 33 52 0 10
-22 10 -24 -3 -13 -8 6 -17 9 -21 6 -3 -4 12 -24 33 -45 21 -21 50 -54 64 -74
20 -30 29 -36 47 -32 16 5 23 2 23 -9 0 -8 -5 -17 -12 -19 -16 -6 -1 -28 19
-28 11 0 14 6 9 24 -4 15 -1 26 7 29 8 3 3 11 -13 25 l-25 20 28 30 c16 16 25
32 20 35 -5 3 -17 -3 -26 -14 -10 -11 -21 -17 -26 -15 -12 8 -21 46 -10 46 5
0 9 5 9 10 0 6 -7 10 -15 10 -8 0 -15 -4 -15 -10 0 -5 -7 -10 -15 -10 -9 0
-12 -6 -9 -15 4 -9 0 -15 -10 -15 -10 0 -16 8 -16 21 0 23 -30 79 -42 79 -4 0
-8 5 -8 12 0 9 3 9 12 0 18 -18 75 -15 82 4 5 13 13 8 36 -25 17 -22 38 -41
48 -41 16 1 16 2 -1 15 -18 13 -18 14 2 34 l21 21 -22 0 c-30 0 -52 15 -44 29
10 16 -17 14 -40 -4 -22 -17 -54 -20 -54 -5 0 6 7 10 15 10 9 0 27 8 41 17 24
15 27 15 56 -2 30 -17 31 -17 24 0 -6 16 -2 17 51 10 32 -4 70 -9 85 -10 15
-1 34 -7 42 -14 24 -20 156 -13 156 9 0 14 -29 20 -95 20 -47 0 -64 4 -69 15
-4 10 -20 15 -51 15 -30 0 -47 5 -51 14 -4 10 -15 13 -40 9 -27 -4 -34 -2 -34
11 0 11 9 16 28 16 l27 0 -25 20 c-21 15 -23 21 -12 32 11 11 16 9 32 -12 l19
-25 7 32 c3 18 9 31 13 28 4 -2 13 0 21 5 12 8 13 13 3 30 -17 26 -16 30 2 30
8 0 15 -5 15 -11 0 -6 11 3 25 19 15 18 23 37 19 46 -8 22 8 20 40 -5z m1712
-14 c-3 -9 -16 -19 -27 -22 -18 -5 -20 -11 -15 -44 3 -20 8 -44 11 -51 10 -26
-65 -51 -124 -43 -66 9 -83 28 -47 56 14 11 26 27 26 35 0 10 13 14 49 14 44
0 49 3 55 25 4 17 13 25 27 25 13 0 23 8 26 21 4 13 9 17 16 10 5 -5 7 -17 3
-26z m224 -40 c0 -5 -9 4 -20 20 -11 17 -20 35 -20 40 0 6 9 -3 20 -20 11 -16
20 -34 20 -40z m-2070 45 c0 -5 -9 -10 -21 -10 -11 0 -17 5 -14 10 3 6 13 10
21 10 8 0 14 -4 14 -10z m1318 -18 c-5 -27 -28 -26 -28 2 0 19 4 24 15 19 9
-3 15 -12 13 -21z m-2318 8 c0 -5 -4 -10 -9 -10 -6 0 -13 5 -16 10 -3 6 1 10
9 10 9 0 16 -4 16 -10z m1908 -8 c7 -5 10 -16 6 -25 -9 -24 9 -21 24 4 11 16
16 18 28 9 8 -7 14 -22 14 -33 0 -16 -3 -18 -12 -9 -17 17 -28 15 -28 -7 0
-24 -23 -43 -42 -36 -9 4 -18 -1 -21 -9 -10 -25 -37 -19 -37 7 0 13 -5 28 -12
35 -20 20 1 26 22 7 20 -18 20 -18 14 14 -8 41 13 62 44 43z m547 -12 c11 -13
15 -25 10 -37 -5 -10 -8 -21 -7 -25 4 -19 -93 -44 -104 -27 -3 6 -1 16 5 22 6
6 11 26 11 43 0 28 4 33 28 37 15 2 30 5 33 6 3 0 14 -8 24 -19z m-1455 -4 c0
-2 3 -11 6 -19 4 -11 -1 -13 -20 -10 -31 6 -35 33 -6 33 11 0 20 -2 20 -4z
m2048 -26 c18 -32 36 -41 25 -13 -9 23 14 8 28 -19 10 -18 9 -20 -5 -15 -14 5
-16 3 -11 -13 3 -10 2 -27 -3 -37 -6 -10 -13 -43 -16 -73 -4 -30 -10 -57 -14
-61 -4 -4 -34 -13 -67 -19 -102 -21 -144 13 -92 73 16 20 32 27 57 27 28 0 37
5 48 27 6 15 12 37 12 49 0 21 -3 22 -57 17 -32 -3 -67 -10 -78 -15 -11 -5 -1
7 23 27 23 20 42 44 42 52 0 9 6 13 15 9 8 -3 15 -1 15 4 0 6 14 10 30 10 24
0 35 -7 48 -30z m-1254 -32 c7 -5 5 -8 -6 -8 -10 0 -18 -7 -18 -15 0 -28 -17
-15 -24 17 -5 25 -2 36 11 46 16 11 18 10 22 -10 1 -13 8 -26 15 -30z m472 23
c-4 -6 -15 -11 -25 -11 -9 0 -26 -7 -37 -15 -26 -20 -40 -19 -23 2 23 27 73
53 82 44 5 -5 6 -14 3 -20z m78 10 c3 -4 -3 -16 -14 -26 -20 -18 -25 -11 -14
19 7 18 20 21 28 7z m-2350 -76 c-4 -8 -10 -15 -16 -15 -5 0 -6 5 -3 10 3 6
-1 17 -9 26 -9 8 -16 23 -16 31 0 12 7 9 25 -11 13 -14 22 -33 19 -41z m-162
33 c-7 -7 -12 -8 -12 -2 0 14 12 26 19 19 2 -3 -1 -11 -7 -17z m2288 -33 c-7
-9 -15 -13 -18 -10 -3 2 1 11 8 20 7 9 15 13 18 10 3 -2 -1 -11 -8 -20z
m-2214 -24 c-8 -50 0 -68 34 -86 25 -13 28 -13 39 8 10 19 11 17 6 -18 -2 -22
-5 -54 -5 -71 0 -16 -6 -39 -14 -49 -12 -16 -18 -17 -40 -7 -29 13 -40 4 -40
-38 -1 -25 -23 -37 -52 -26 -12 5 -11 9 6 26 11 11 20 32 20 48 0 29 24 72 41
72 5 0 9 -9 9 -20 0 -25 16 -26 30 -1 16 31 12 61 -8 61 -10 0 -24 9 -32 20
-8 11 -20 20 -27 20 -17 0 -16 10 2 34 8 11 15 30 15 43 0 13 5 23 11 23 8 0
9 -13 5 -39z m2626 -6 c25 -51 19 -76 -20 -81 -19 -3 -21 0 -15 27 5 25 2 35
-16 48 -26 20 -19 51 10 51 13 0 27 -15 41 -45z m-237 9 c23 -35 18 -47 -24
-68 -40 -19 -101 -15 -101 6 0 13 32 71 44 80 21 15 66 5 81 -18z m-1395 -24
c0 -5 -4 -10 -9 -10 -6 0 -13 5 -16 10 -3 6 1 10 9 10 9 0 16 -4 16 -10z
m1103 -24 c25 -22 37 -42 37 -60 0 -35 -13 -33 -33 7 -8 17 -16 25 -16 17 -1
-8 -12 -20 -26 -26 -28 -14 -36 -7 -53 42 -9 28 -8 33 11 42 34 16 40 14 80
-22z m1117 -22 c0 -32 -4 -53 -10 -49 -7 4 -8 89 -1 103 7 13 11 -8 11 -54z
m-3895 36 c8 -13 -5 -13 -25 0 -13 8 -13 10 2 10 9 0 20 -4 23 -10z m3244 -17
c11 -22 10 -23 -31 -23 l-43 1 29 25 c15 14 29 24 31 22 1 -2 8 -13 14 -25z
m137 0 c-10 -10 -19 5 -10 18 6 11 8 11 12 0 2 -7 1 -15 -2 -18z m722 2 c-3
-3 -9 2 -12 12 -6 14 -5 15 5 6 7 -7 10 -15 7 -18z m-1516 -30 c-2 -17 -8 -31
-13 -33 -5 -2 -9 -10 -9 -18 0 -16 -26 -19 -35 -5 -3 5 0 13 6 16 6 4 8 18 4
33 -7 27 9 44 35 39 10 -2 14 -12 12 -32z m1478 -5 c4 -16 16 -27 38 -32 21
-6 33 -16 36 -31 29 -141 26 -161 -31 -212 -43 -38 -45 -42 -33 -65 38 -70 49
-139 39 -238 -9 -91 -11 -98 -40 -122 -87 -70 -81 -58 -63 -125 20 -78 18
-117 -10 -212 -23 -77 -24 -78 -82 -114 l-59 -36 -1 -88 c-1 -68 -7 -98 -25
-136 -12 -27 -24 -47 -26 -45 -3 2 5 23 17 46 18 35 19 44 8 54 -7 6 -10 7 -6
3 7 -9 -27 -92 -46 -114 -36 -40 -37 -43 -23 -43 7 0 19 6 26 13 10 10 11 8 5
-7 -4 -10 -39 -33 -78 -51 l-71 -32 -12 -66 c-7 -37 -13 -75 -13 -85 0 -10 -7
-27 -15 -38 -13 -18 -14 -18 -8 6 l7 25 -28 -18 c-14 -10 -31 -15 -36 -12 -6
4 -7 -2 -3 -12 3 -10 3 -15 -2 -11 -4 4 -16 -3 -26 -15 -14 -18 -20 -20 -30
-9 -10 9 -10 12 -1 12 7 0 12 7 12 15 0 8 3 14 8 13 4 -2 9 2 11 7 6 12 20 30
45 55 13 13 17 26 12 45 -5 21 -1 32 17 48 12 12 36 40 52 62 16 22 37 49 47
59 10 11 21 29 24 40 4 12 15 27 25 34 11 7 19 23 19 35 0 12 11 39 25 59 13
19 26 46 29 59 2 13 8 35 14 49 5 14 16 45 23 70 7 25 16 49 20 54 5 5 5 29 2
53 -4 29 -1 53 8 69 12 23 11 28 -6 40 -10 8 -29 14 -42 14 -35 0 -27 17 11
24 19 4 39 13 46 21 18 22 40 18 40 -7 0 -18 2 -20 9 -8 6 8 8 18 5 22 -3 4 5
21 17 37 26 35 20 47 -25 55 -19 4 -37 13 -40 21 -3 8 -14 15 -25 15 -36 0
-37 56 -2 91 15 15 19 15 56 -4 70 -35 75 -37 75 -28 0 5 -6 12 -12 15 -9 4
-6 10 9 21 21 16 21 18 5 51 -14 29 -14 38 -3 56 16 26 2 38 -51 38 -53 0 -55
16 -6 38 24 10 49 26 57 35 22 27 38 20 44 -20 4 -22 15 -43 26 -50 17 -11 19
-10 15 2 -4 8 -10 15 -14 15 -4 0 -6 19 -3 43 5 54 4 108 -3 119 -3 5 -14 6
-24 3 -19 -6 -110 35 -129 59 -10 12 -6 19 18 37 17 13 31 29 31 36 0 11 6 11
30 -2 39 -20 53 -19 75 5 18 20 18 22 1 50 -9 16 -16 38 -14 47 3 16 -4 18
-49 16 -29 -1 -53 2 -53 7 0 4 15 18 34 29 19 12 41 33 51 47 19 30 37 27 45
-6z m-963 -22 c21 -42 24 -88 7 -95 -21 -8 -29 4 -15 20 12 15 5 47 -10 47 -5
0 -14 -10 -20 -22 -8 -19 -19 -23 -60 -24 -27 -1 -49 0 -49 2 0 2 18 13 40 24
23 12 46 32 52 45 14 31 41 32 55 3z m453 12 c0 -5 11 -12 25 -16 26 -7 56
-34 36 -34 -18 0 -13 -48 7 -59 14 -8 15 -12 5 -22 -7 -7 -13 -33 -13 -58 0
-38 -5 -51 -36 -82 l-36 -36 21 -68 c12 -38 21 -95 21 -130 l0 -64 -47 -37
c-27 -21 -49 -39 -50 -39 -1 0 5 -31 14 -69 12 -57 13 -75 3 -113 -9 -32 -16
-41 -22 -31 -6 8 -7 2 -3 -18 6 -30 3 -34 -50 -64 l-57 -33 4 -74 c3 -58 1
-71 -8 -58 -7 9 -10 33 -7 56 5 33 3 41 -13 46 -29 8 -84 88 -77 112 7 26 17
26 53 0 35 -26 66 -20 50 10 -8 16 -7 22 6 29 14 8 15 14 3 48 -18 53 -27 64
-55 64 -33 0 -30 18 4 26 15 3 44 12 65 20 20 8 37 11 37 8 0 -4 7 -1 15 6 25
21 18 40 -14 40 -20 0 -42 11 -67 35 l-36 35 30 28 c22 21 35 26 47 20 8 -5
23 -8 33 -6 9 2 22 -3 29 -12 6 -8 15 -12 19 -8 4 4 1 14 -5 22 -10 12 -8 17
8 26 20 10 20 12 4 38 -24 39 -43 52 -75 52 -15 0 -28 5 -28 10 0 6 7 10 15
10 9 0 34 12 56 26 l41 26 20 -22 c24 -26 34 -20 18 10 -6 12 -9 33 -6 46 6
21 3 24 -24 24 -16 0 -48 9 -70 21 -42 22 -59 39 -40 39 7 0 21 11 32 25 15
20 29 25 61 25 37 0 44 3 56 31 19 44 -2 63 -69 63 -27 0 -50 3 -50 6 0 3 12
13 28 22 15 9 38 26 51 37 26 23 41 27 41 11z m-904 -26 c4 -14 2 -30 -5 -37
-6 -6 -11 -7 -12 -1 0 5 -3 21 -5 37 -6 34 13 36 22 1z m254 -1 c0 -21 -3 -24
-9 -14 -5 8 -7 20 -4 28 8 21 13 15 13 -14z m401 -6 c-13 -13 -26 -3 -16 12 3
6 11 8 17 5 6 -4 6 -10 -1 -17z m-3048 -1 c23 -18 21 -28 -5 -24 -13 2 -24 11
-26 21 -4 20 6 21 31 3z m2172 -1 c21 -22 46 -75 35 -75 -10 0 -55 47 -72 75
-9 15 22 15 37 0z m859 -20 c15 -23 23 -65 10 -52 -3 3 -18 1 -33 -4 -14 -6
-43 -12 -63 -13 -31 -3 -38 0 -38 15 0 10 5 21 10 24 6 3 10 15 10 25 0 21 11
26 57 28 23 1 35 -5 47 -23z m610 -4 c3 -5 -6 -17 -20 -26 -26 -17 -26 -10 -1
23 11 14 14 15 21 3z m-3285 -17 c2 -2 2 -6 0 -9 -8 -7 -49 7 -49 17 0 8 38 2
49 -8z m1986 -4 c3 -5 -1 -10 -10 -10 -9 0 -13 5 -10 10 3 6 8 10 10 10 2 0 7
-4 10 -10z m259 -11 c-3 -5 -10 -7 -15 -3 -5 3 -7 10 -3 15 3 5 10 7 15 3 5
-3 7 -10 3 -15z m43 -14 c-4 -8 -11 -15 -17 -15 -6 0 -6 7 2 20 14 22 24 19
15 -5z m473 10 c-7 -9 -15 -13 -17 -11 -7 7 7 26 19 26 6 0 6 -6 -2 -15z
m-562 -50 c12 -31 22 -64 22 -75 0 -10 5 -22 10 -25 15 -9 12 -55 -3 -55 -8 0
-14 -7 -14 -15 0 -11 6 -13 20 -9 13 4 18 2 15 -7 -2 -7 -13 -16 -24 -19 -15
-4 -19 -14 -19 -45 l0 -40 -47 2 c-36 1 -48 -2 -48 -13 0 -9 8 -14 18 -12 13
2 17 -4 18 -27 0 -16 4 -39 7 -51 4 -12 1 -36 -8 -57 -8 -20 -15 -48 -15 -62
0 -14 -4 -25 -10 -25 -5 0 -10 6 -10 14 0 8 -5 18 -12 22 -8 5 -9 -2 -5 -24 4
-19 2 -32 -3 -32 -6 0 -10 -5 -10 -11 0 -6 7 -9 15 -5 33 12 13 -26 -21 -40
-41 -17 -57 -11 -28 10 18 14 18 15 0 35 -11 12 -16 21 -13 21 3 0 0 18 -8 40
-15 44 -9 54 30 44 l26 -6 -7 76 c-6 68 -5 76 10 76 13 0 16 5 11 19 -9 29 32
49 49 25 12 -16 14 -15 20 9 3 14 3 33 0 42 -6 15 -8 16 -16 2 -14 -27 -51 -5
-60 34 -9 44 -4 49 43 49 32 0 39 -3 39 -20 0 -11 6 -20 14 -20 18 0 31 56 18
73 -6 7 -12 23 -14 36 -2 18 -10 25 -28 26 -14 2 -30 -2 -37 -7 -14 -11 -19
-3 -28 44 -7 35 -6 37 26 47 52 14 53 14 77 -44z m1032 35 c0 -5 -5 -10 -11
-10 -5 0 -7 5 -4 10 3 6 8 10 11 10 2 0 4 -4 4 -10z m-755 -30 c24 -46 19 -76
-12 -88 -58 -22 -89 -24 -112 -5 -23 19 -23 19 -4 56 17 35 21 38 53 33 39 -6
66 6 56 23 -4 6 -5 11 -2 11 3 0 12 -13 21 -30z m-2829 8 c5 4 1 -2 -9 -14 -9
-11 -14 -24 -10 -27 3 -4 1 -7 -6 -7 -15 0 -25 26 -17 46 5 12 10 14 20 5 7
-6 17 -7 22 -3z m1014 8 c0 -3 -4 -8 -10 -11 -5 -3 -10 -1 -10 4 0 6 5 11 10
11 6 0 10 -2 10 -4z m168 -11 c-2 -5 -10 -9 -18 -8 -8 1 -18 -3 -21 -9 -8 -12
-39 -3 -39 11 0 5 12 12 28 14 38 6 54 4 50 -8z m1172 -5 c-6 -11 -15 -20 -20
-20 -5 0 -7 -7 -4 -15 4 -8 10 -15 15 -15 4 0 6 7 3 15 -4 8 -2 15 4 15 12 0
22 -34 22 -76 0 -40 -9 -48 -32 -27 -19 17 -25 39 -8 28 6 -3 10 3 10 14 0 22
-14 28 -25 10 -12 -18 -55 31 -55 63 0 27 2 28 50 28 48 0 50 -1 40 -20z
m1742 -48 c37 -4 43 -32 19 -81 -28 -53 -36 -56 -61 -22 -15 22 -19 38 -14 57
7 27 7 27 -37 20 -24 -4 -51 -14 -61 -23 -10 -9 -18 -14 -18 -10 0 3 -3 12 -6
21 -4 10 5 20 28 32 18 9 46 30 62 45 l29 28 16 -32 c11 -22 24 -33 43 -35z
m-3002 5 c0 -5 -7 -4 -15 3 -8 7 -15 20 -15 29 1 13 3 13 15 -3 8 -11 15 -24
15 -29z m1962 8 c10 -13 19 -40 20 -59 2 -24 7 -35 16 -31 8 3 12 -9 12 -40 0
-42 -6 -50 -32 -46 -5 0 -8 -5 -8 -13 0 -32 -29 -45 -91 -42 -74 3 -103 24
-76 54 9 10 17 24 17 32 0 9 10 11 33 7 31 -5 92 16 68 24 -8 3 -8 12 1 36 10
28 10 35 -6 52 -10 11 -16 27 -13 36 9 22 40 18 59 -10z m498 10 c14 9 48 -62
54 -112 2 -26 0 -84 -4 -128 -8 -66 -13 -83 -32 -95 -63 -43 -63 -44 -44 -84
14 -29 15 -40 6 -52 -10 -11 -9 -14 4 -14 21 0 22 -46 1 -54 -8 -3 -15 -14
-15 -25 0 -11 -11 -28 -25 -39 -14 -11 -25 -24 -25 -30 0 -6 -26 -11 -61 -11
-117 0 -162 55 -81 98 16 9 27 9 43 1 11 -7 27 -9 35 -6 8 3 14 -1 14 -9 0 -8
7 -15 15 -15 18 0 20 16 3 24 -9 4 -6 10 10 22 26 20 28 32 5 30 -13 -1 -19 8
-21 31 -3 29 -7 33 -40 38 -55 10 -72 17 -47 22 37 7 100 37 109 52 8 12 11
12 21 -2 16 -22 31 -6 38 38 4 28 5 29 12 8 9 -28 10 -28 35 -3 30 30 27 52
-6 40 -59 -23 -204 7 -204 42 0 7 15 25 34 40 27 22 41 26 68 21 31 -4 38 -1
57 25 24 35 27 67 7 75 -8 3 -44 5 -80 3 l-66 -2 53 30 c28 16 56 36 60 43 5
9 15 10 33 3 14 -6 29 -8 34 -5z m-3064 -57 c-4 -29 -10 -71 -13 -93 -6 -43
-23 -60 -63 -60 -18 0 -26 -6 -28 -22 -2 -15 -10 -23 -23 -23 -21 0 -26 15 -8
26 7 4 9 23 5 50 -4 35 -3 44 9 44 8 0 15 5 15 10 0 24 20 7 21 -17 0 -25 1
-26 9 -8 5 11 9 30 9 43 1 19 -3 22 -19 17 -23 -7 -68 19 -50 30 6 4 27 4 48
1 34 -6 39 -4 54 24 27 48 42 39 34 -22z m564 42 c0 -5 -9 -10 -21 -10 -11 0
-17 5 -14 10 3 6 13 10 21 10 8 0 14 -4 14 -10z m85 -10 c-10 -11 -20 -18 -23
-16 -5 6 21 35 32 36 5 0 1 -9 -9 -20z m-135 -10 c0 -5 -2 -10 -4 -10 -3 0 -8
5 -11 10 -3 6 -1 10 4 10 6 0 11 -4 11 -10z m1998 -22 c3 -25 1 -26 -31 -18
-19 4 -42 3 -51 -2 -10 -6 -20 -8 -22 -5 -7 6 78 55 91 53 6 -2 11 -14 13 -28z
m-1612 -35 c-12 -12 -41 13 -45 38 l-3 24 28 -28 c15 -15 24 -30 20 -34z
m-381 26 c4 -6 13 -8 21 -5 7 3 16 1 20 -5 4 -6 11 -6 20 2 8 6 17 9 20 6 6
-6 -85 -113 -160 -189 -30 -31 -41 -36 -52 -27 -8 6 -14 8 -14 4 0 -4 8 -14
18 -22 12 -10 14 -16 5 -19 -15 -7 -17 -44 -3 -44 6 0 10 -29 10 -68 l0 -68
-35 1 c-19 1 -44 10 -55 20 -11 10 -20 13 -20 7 0 -7 -7 -12 -15 -12 -8 0 -15
7 -15 15 0 10 -10 15 -30 15 -23 0 -31 -5 -36 -25 -8 -34 1 -55 26 -55 22 0
23 -1 14 -24 -3 -9 -12 -16 -18 -16 -7 0 -19 -15 -27 -32 -15 -35 -49 -51 -49
-24 0 9 7 16 15 16 8 0 15 6 15 13 0 6 3 23 7 36 4 16 3 22 -5 17 -6 -3 -17 3
-26 15 -22 33 -40 14 -19 -21 23 -39 12 -47 -26 -19 -24 17 -31 31 -31 55 0
18 -6 35 -12 38 -9 3 -7 9 6 20 24 19 50 21 43 3 -6 -15 29 -41 43 -32 17 10
11 19 -25 43 -21 13 -44 20 -58 17 -14 -3 -32 4 -52 20 -28 23 -29 24 -11 44
10 11 22 18 27 16 4 -3 10 -1 13 4 3 5 21 8 39 6 18 -2 43 2 56 9 21 12 22 14
7 29 -21 20 -20 35 1 33 12 -1 19 9 23 29 3 19 8 26 13 18 4 -7 5 -24 1 -39
-6 -25 -5 -27 17 -20 13 3 33 9 44 12 12 3 29 -3 42 -16 27 -25 33 -25 33 -1
0 10 -7 21 -15 25 -8 3 -15 10 -15 16 0 5 7 10 15 10 8 0 15 5 15 10 0 6 4 10
9 10 4 0 6 -11 3 -25 -3 -18 0 -25 12 -25 9 0 16 5 16 11 0 7 11 9 30 6 23 -5
28 -3 23 8 -3 9 0 22 6 29 10 11 8 17 -6 25 -17 10 -17 10 0 11 9 0 17 3 17 8
0 11 -58 34 -72 29 -17 -6 -50 12 -43 23 3 5 12 7 19 4 8 -3 16 2 18 10 3 14
6 14 32 1 35 -19 37 -19 29 1 -4 12 -2 15 8 12 8 -3 13 -13 12 -23 -3 -38 48
-63 83 -40 34 22 30 35 -7 22 -27 -10 -32 -9 -44 7 -13 17 -12 22 8 42 25 26
33 29 42 13z m1625 -20 c0 -10 -4 -19 -10 -19 -5 0 -10 12 -10 26 0 14 4 23
10 19 6 -3 10 -15 10 -26z m-120 1 c0 -5 -7 -7 -15 -4 -8 4 -15 8 -15 10 0 2
7 4 15 4 8 0 15 -4 15 -10z m292 -13 c17 -13 21 -47 19 -161 -1 -54 -4 -61
-37 -91 l-36 -33 10 -58 c14 -81 2 -113 -53 -146 l-46 -28 7 -50 c9 -71 -8
-105 -67 -135 -42 -22 -49 -30 -54 -62 -10 -59 -13 -62 -14 -14 -1 28 5 51 15
63 13 14 14 21 5 32 -9 10 -9 16 -1 21 7 4 9 18 6 30 -5 18 -1 25 14 30 11 3
20 9 20 13 -1 13 -27 42 -39 42 -6 0 -11 7 -11 15 0 8 6 15 14 15 7 0 18 6 24
13 8 10 6 16 -9 25 -23 15 -25 44 -3 77 15 23 18 24 44 10 48 -25 80 -17 43
10 -14 11 -15 17 -6 38 10 22 9 26 -15 37 l-27 13 32 7 c52 12 87 50 45 50
-40 0 -55 47 -27 84 13 17 19 18 50 9 26 -8 37 -8 45 2 8 9 5 14 -12 19 -19 5
-20 8 -8 15 8 5 17 8 21 5 4 -2 10 0 13 4 7 11 -62 44 -75 37 -5 -4 -9 -2 -9
3 0 5 15 13 33 18 18 5 36 19 42 32 11 25 23 27 47 9z m-2822 -5 c0 -5 -7 -9
-15 -9 -8 0 -12 4 -9 9 3 4 9 8 15 8 5 0 9 -4 9 -8z m787 -19 c26 -34 34 -53
23 -53 -6 0 -15 11 -20 25 -12 32 -34 34 -24 3 4 -13 9 -29 12 -37 4 -11 -1
-12 -23 -7 -22 6 -26 4 -22 -8 4 -9 2 -16 -3 -16 -6 0 -10 6 -10 14 0 9 -7 12
-20 9 -34 -9 -23 23 15 47 19 12 35 26 35 31 0 15 22 10 37 -8z m-433 -12 c3
-4 3 -11 0 -14 -8 -7 -44 4 -44 14 0 12 37 12 44 0z m1956 -11 c0 -5 -4 -10
-10 -10 -5 0 -10 5 -10 10 0 6 5 10 10 10 6 0 10 -4 10 -10z m-1420 -34 c0 -2
-7 -6 -15 -10 -8 -3 -15 -1 -15 4 0 6 7 10 15 10 8 0 15 -2 15 -4z m1460 -35
c0 -22 -26 -58 -36 -49 -4 4 -1 14 6 23 7 8 10 26 8 40 -4 20 -3 23 8 14 8 -6
14 -19 14 -28z m-1711 10 c8 -5 11 -16 7 -29 l-7 -21 -25 21 c-13 12 -24 25
-24 30 0 11 31 10 49 -1z m546 -31 c-5 -8 -11 -8 -17 -2 -6 6 -7 16 -3 22 5 8
11 8 17 2 6 -6 7 -16 3 -22z m-687 -23 c2 -14 -4 -47 -13 -74 -12 -36 -15 -65
-10 -114 5 -47 3 -69 -5 -74 -9 -5 -11 4 -8 36 3 42 2 44 -24 41 -31 -4 -44
11 -23 28 8 7 15 29 15 49 0 34 -2 36 -36 38 -40 2 -49 7 -39 22 3 6 24 11 45
11 35 0 41 4 56 35 19 40 37 41 42 2z m2607 23 c-3 -5 -16 -15 -28 -21 -22
-12 -22 -12 -3 10 19 21 43 30 31 11z m-55 -122 c7 -62 7 -84 -5 -113 -14 -32
-35 -48 -35 -25 0 5 -7 7 -16 3 -8 -3 -13 -12 -10 -19 3 -8 -1 -14 -9 -14 -8
0 -15 -7 -15 -15 0 -8 5 -15 10 -15 7 0 7 -7 0 -20 -6 -11 -8 -24 -6 -29 7
-11 -20 -23 -61 -25 -24 -2 -30 1 -25 12 4 11 1 14 -11 9 -9 -3 -17 -2 -17 3
0 5 -12 16 -27 24 l-28 15 46 1 c42 0 69 13 69 32 0 4 -8 8 -18 8 -39 0 -57
55 -27 80 8 7 15 19 15 27 0 10 4 11 19 3 25 -13 31 -13 31 2 0 6 9 22 21 34
l20 22 -32 11 c-18 6 -41 11 -53 12 -14 1 -8 5 16 13 21 6 48 20 60 31 57 50
74 37 88 -67z m-464 30 c-6 -39 -19 -57 -38 -58 -5 0 -8 5 -8 11 0 5 5 7 11 3
8 -4 10 8 8 40 -4 40 -2 46 15 46 16 0 18 -5 12 -42z m-2205 -28 c6 0 7 -4 4
-10 -7 -12 -55 -13 -55 -2 0 15 13 23 28 17 7 -3 18 -5 23 -5z m2039 -5 c0
-15 -26 -32 -36 -23 -2 3 -2 13 2 22 8 20 34 21 34 1z m-1335 -35 c-3 -5 -11
-10 -16 -10 -6 0 -7 5 -4 10 3 6 11 10 16 10 6 0 7 -4 4 -10z m2951 -118 c2
-8 13 -16 23 -19 31 -8 34 -33 9 -69 -31 -46 -45 -49 -64 -12 -13 24 -14 36
-5 56 7 13 9 27 6 30 -3 3 -30 7 -60 10 -31 2 -57 8 -60 12 -2 4 15 13 38 20
23 7 53 21 67 32 l25 20 9 -34 c4 -18 10 -39 12 -46z m-3506 32 c0 -8 -5 -12
-10 -9 -6 4 -8 11 -5 16 9 14 15 11 15 -7z m218 -18 c3 -12 -1 -17 -10 -14 -7
3 -15 13 -16 22 -3 12 1 17 10 14 7 -3 15 -13 16 -22z m318 -68 c-8 -117 -36
-520 -36 -532 0 -6 -4 -6 -10 0 -8 8 -6 101 6 305 9 162 18 300 20 307 2 6 9
12 15 12 9 0 10 -24 5 -92z m-609 28 c2 -2 4 -16 7 -32 2 -16 1 -21 -1 -11 -4
14 -11 16 -44 11 -40 -7 -45 -2 -33 31 5 12 14 14 38 9 17 -3 32 -7 33 -8z
m919 -21 c1 -14 -2 -25 -7 -25 -5 0 -9 11 -9 25 0 33 15 33 16 0z m67 -35 c3
-11 1 -20 -4 -20 -5 0 -9 9 -9 20 0 11 2 20 4 20 2 0 6 -9 9 -20z m77 -30 c0
-5 -2 -10 -4 -10 -3 0 -8 5 -11 10 -3 6 -1 10 4 10 6 0 11 -4 11 -10z m1992
-22 c-7 -7 -12 -8 -12 -2 0 14 12 26 19 19 2 -3 -1 -11 -7 -17z m-1365 -10
c-3 -8 -6 -5 -6 6 -1 11 2 17 5 13 3 -3 4 -12 1 -19z m813 -4 c0 -16 -37 -37
-50 -29 -13 8 -13 28 1 42 14 14 49 5 49 -13z m-2503 -6 c-3 -8 -6 -5 -6 6 -1
11 2 17 5 13 3 -3 4 -12 1 -19z m3501 -50 l44 -26 -48 -16 c-63 -21 -96 -20
-128 5 -35 28 -33 44 12 73 35 23 38 23 57 6 11 -9 39 -28 63 -42z m144 25
c-7 -13 -6 -26 3 -42 11 -22 10 -27 -14 -46 -14 -12 -37 -28 -50 -35 -22 -12
-23 -11 -19 14 3 14 2 26 -2 26 -4 0 -5 11 -2 25 3 16 11 25 23 25 26 0 14 24
-19 37 -25 10 -24 11 20 12 26 1 50 6 54 13 12 19 17 -8 6 -29z m-1955 -15
c-3 -7 -5 -2 -5 12 0 14 2 19 5 13 2 -7 2 -19 0 -25z m687 8 l35 -23 -42 -6
c-49 -7 -51 -5 -43 28 8 31 7 31 50 1z m-324 -48 c0 -6 -6 -8 -14 -5 -8 3 -17
1 -20 -6 -2 -7 -5 -3 -5 9 -1 11 2 24 6 27 7 8 33 -11 33 -25z m911 -44 c25
-22 24 -35 -4 -55 -22 -16 -23 -15 -34 7 -6 13 -7 22 -3 19 4 -3 6 3 3 13 -2
10 -12 18 -21 19 -9 1 -37 10 -62 21 l-45 19 59 6 c32 3 64 11 70 17 8 8 12 3
14 -18 2 -17 12 -38 23 -48z m-953 -126 c-2 -39 1 -69 6 -71 6 -2 2 -7 -8 -10
-18 -7 -18 -3 -12 54 3 34 7 80 7 103 1 28 3 33 6 16 3 -13 3 -55 1 -92z m320
81 c12 -18 11 -19 -5 -10 -44 25 -49 31 -28 31 11 0 26 -9 33 -21z m52 -21 c0
-10 -7 -18 -15 -18 -16 0 -19 17 -9 45 5 13 8 14 15 3 5 -7 9 -21 9 -30z
m-3080 17 c0 -3 -4 -13 -9 -23 -5 -9 -14 -29 -20 -44 -13 -34 -41 -37 -42 -5
-3 54 11 77 47 77 13 0 24 -2 24 -5z m2196 -32 c15 -20 23 -33 16 -29 -13 8
-56 66 -49 66 3 0 17 -17 33 -37z m-1668 -33 c33 -20 44 -37 16 -26 -22 8 -76
-34 -71 -56 4 -15 1 -17 -19 -12 -16 4 -24 2 -25 -7 -1 -8 -4 -3 -8 11 -6 21
-12 25 -41 22 -19 -2 -43 -5 -52 -8 -13 -4 -16 -1 -12 10 4 11 19 16 46 16 33
0 42 5 56 30 10 17 27 31 42 33 14 2 27 5 30 5 3 1 20 -7 38 -18z m3002 -34
c11 -14 8 -16 -24 -16 -36 0 -41 5 -30 34 7 17 31 9 54 -18z m140 19 c-7 -8
-17 -15 -22 -15 -6 0 -5 7 2 15 7 8 17 15 22 15 6 0 5 -7 -2 -15z m468 -71
c-7 -6 -138 40 -138 48 0 4 21 8 48 8 26 0 56 7 67 16 19 14 20 13 23 -27 2
-22 2 -43 0 -45z m24 -41 c24 -22 23 -30 -9 -58 -42 -36 -66 -9 -43 49 11 30
26 33 52 9z m-889 -45 l-61 -31 -16 -71 -15 -71 4 61 c2 33 7 68 10 76 4 9 32
27 63 42 79 36 90 31 15 -6z m-3246 11 c-14 -8 -22 -8 -30 0 -8 8 -3 11 19 11
25 -1 27 -2 11 -11z m2889 -36 c-10 -10 -19 5 -10 18 6 11 8 11 12 0 2 -7 1
-15 -2 -18z m501 13 c0 -11 -5 -13 -19 -5 -10 5 -18 12 -18 14 0 3 8 5 18 5
10 0 19 -7 19 -14z m-3200 -28 c11 -13 28 -38 37 -56 l17 -33 -43 22 c-36 18
-47 20 -72 10 -25 -9 -33 -8 -45 4 -14 13 -13 15 5 15 25 0 59 34 49 49 -12
21 32 11 52 -11z m3238 2 c3 -5 2 -10 -4 -10 -5 0 -13 5 -16 10 -3 6 -2 10 4
10 5 0 13 -4 16 -10z m45 -60 c0 -10 -9 -20 -20 -23 -21 -5 -27 14 -14 47 8
21 34 2 34 -24z m498 -41 c-66 -11 -122 49 -65 70 18 7 29 2 60 -28 l38 -36
-33 -6z m-3398 34 c-1 -10 -6 -30 -13 -45 -11 -25 -14 -27 -36 -15 -33 16 -36
32 -12 56 26 26 61 28 61 4z m2105 -61 c-3 -3 -11 0 -18 7 -9 10 -8 11 6 5 10
-3 15 -9 12 -12z m-2645 -1 c0 -5 3 -18 6 -28 6 -16 5 -16 -9 2 -19 23 -21 35
-7 35 6 0 10 -4 10 -9z m395 -13 c-19 -11 -30 -5 -21 11 4 6 14 7 22 4 15 -5
14 -7 -1 -15z m2871 -15 c-7 -7 -26 7 -26 19 0 6 6 6 15 -2 9 -7 13 -15 11
-17z m-2171 -3 c3 -5 -1 -10 -10 -10 -9 0 -13 5 -10 10 3 6 8 10 10 10 2 0 7
-4 10 -10z m1575 -25 c0 -8 -4 -15 -10 -15 -5 0 -7 7 -4 15 4 8 8 15 10 15 2
0 4 -7 4 -15z m388 -30 c-3 -3 -29 -14 -59 -24 -49 -18 -55 -23 -68 -63 -8
-23 -16 -38 -18 -31 -2 6 4 28 14 48 14 30 28 41 68 55 52 19 72 24 63 15z
m107 -62 c8 -22 -10 -14 -41 18 l-29 31 32 -19 c18 -10 35 -24 38 -30z m684
21 c2 -2 -3 -4 -12 -4 -20 0 -22 -11 -5 -28 21 -21 0 -13 -50 18 l-47 30 55
-6 c30 -4 57 -8 59 -10z m-3174 -85 c0 -32 -3 -34 -39 -18 -28 13 -24 36 8 49
27 10 31 5 31 -31z m-335 -51 c0 -5 -18 1 -40 12 l-41 21 -29 -21 c-27 -20
-32 -20 -52 -6 -21 15 -21 16 25 36 25 11 49 25 53 31 6 11 84 -57 84 -73z
m2877 7 c-2 -5 -13 -11 -25 -13 -16 -3 -21 1 -17 12 17 55 15 53 31 31 8 -10
13 -24 11 -30z m657 13 c22 -31 20 -35 -14 -53 -36 -19 -36 -19 -44 1 -7 17
19 74 34 74 5 0 16 -10 24 -22z m-850 -64 c3 -8 2 -12 -4 -9 -6 3 -10 10 -10
16 0 14 7 11 14 -7z m676 -77 c0 -8 -46 -4 -57 5 -16 13 -17 55 -1 60 9 3 58
-52 58 -65z m-776 -13 c9 -24 -8 -15 -34 18 l-24 31 26 -17 c15 -9 29 -24 32
-32z m438 19 c10 -9 18 -22 18 -30 0 -7 7 -16 16 -20 12 -4 13 -7 3 -14 -24
-14 -2 -21 37 -10 63 17 23 -10 -58 -39 l-73 -26 -30 -80 c-26 -69 -30 -75
-33 -48 -3 26 -7 30 -25 27 -15 -3 -30 4 -46 21 l-24 26 21 23 c12 13 19 27
15 31 -4 4 5 2 21 -4 32 -12 42 -6 48 25 2 15 11 20 39 21 44 1 69 10 69 24 0
7 -13 9 -35 4 -30 -5 -35 -4 -35 14 0 18 35 72 47 72 4 0 15 -7 25 -17z
m-2502 -53 c0 -4 -14 -5 -30 -2 -30 4 -30 5 -13 24 16 18 18 18 30 2 7 -10 13
-21 13 -24z m1611 -33 c-13 -13 -26 -3 -16 12 3 6 11 8 17 5 6 -4 6 -10 -1
-17z m472 -43 c1 -19 -3 -29 -14 -32 -21 -4 -32 34 -18 61 14 24 29 10 32 -29z
m602 -2 c-3 -3 0 -11 7 -19 6 -7 9 -16 6 -18 -2 -3 -22 14 -44 36 l-39 41 37
-18 c21 -10 36 -20 33 -22z m-3057 -4 c46 -32 43 -54 -3 -24 -34 22 -50 20
-74 -10 -21 -27 -51 -27 -51 0 0 14 57 66 73 66 5 0 29 -14 55 -32z m2267 -36
c6 -22 5 -23 -14 -13 -23 13 -23 13 -15 36 8 19 19 10 29 -23z m276 -9 c14
-18 23 -23 26 -15 5 12 33 18 33 6 0 -3 -8 -16 -19 -29 -13 -18 -21 -21 -30
-12 -6 6 -11 15 -11 21 0 5 -10 20 -22 33 -12 13 -17 23 -10 23 6 0 20 -12 33
-27z m-374 -45 c-6 -4 -19 5 -29 20 -27 40 -22 47 11 15 18 -18 24 -31 18 -35z
m-491 15 c-11 -11 -19 6 -11 24 8 17 8 17 12 0 3 -10 2 -21 -1 -24z m-1087 8
c9 -16 6 -19 -21 -25 -37 -7 -38 -7 -27 22 10 27 35 29 48 3z m2500 -68 c13
-28 10 -33 -31 -51 -25 -10 -28 -9 -28 8 0 31 18 70 33 70 8 0 19 -12 26 -27z
m-1217 -92 c-3 -9 -12 -2 -23 20 -18 32 -19 33 -25 12 -7 -25 -12 -27 -33 -14
-18 11 -5 31 20 31 11 0 19 7 19 16 0 11 9 4 23 -17 13 -19 22 -40 19 -48z
m93 39 c0 -35 -2 -40 -22 -40 -29 0 -31 32 -3 60 11 11 21 20 23 20 1 0 2 -18
2 -40z m579 18 c9 -12 16 -35 16 -50 0 -26 3 -28 43 -29 40 -1 39 -2 -27 -18
-70 -17 -95 -37 -110 -88 -6 -18 -2 -24 18 -29 14 -3 32 -4 40 -1 21 8 28 -21
14 -51 -10 -20 -23 -28 -58 -34 -54 -9 -62 0 -54 65 4 30 3 47 -4 47 -6 0 -14
-4 -17 -10 -3 -5 -21 -10 -40 -10 -27 0 -40 8 -69 43 l-36 42 -19 -22 c-22
-26 -31 -29 -31 -10 0 6 -9 23 -20 37 -22 28 -25 40 -10 40 6 0 10 -5 10 -11
0 -6 6 -16 13 -23 20 -21 82 8 97 45 7 16 16 29 20 29 4 0 15 -18 25 -39 10
-22 26 -42 38 -45 26 -6 29 -4 31 28 0 14 5 26 10 26 16 0 46 32 46 50 0 15
30 37 52 39 4 1 14 -9 22 -21z m-390 -10 c11 -43 7 -56 -14 -51 -20 5 -25 27
-14 57 9 23 21 20 28 -6z m486 12 c-8 -5 -19 -10 -25 -10 -5 0 -3 5 5 10 8 5
20 10 25 10 6 0 3 -5 -5 -10z m250 -68 c0 -2 -8 -2 -17 0 -10 2 -23 14 -29 28
-10 20 -9 27 4 36 14 10 18 6 29 -25 7 -20 13 -37 13 -39z m-2469 46 c11 -21
11 -22 -4 -9 -10 7 -17 17 -17 22 0 15 9 10 21 -13z m421 3 c15 -18 15 -19 -5
-24 -12 -3 -32 -9 -45 -12 -19 -6 -21 -4 -16 11 7 19 32 44 44 44 3 0 13 -9
22 -19z m121 -15 c9 0 17 -5 17 -11 0 -17 -58 -6 -64 12 -5 11 -2 13 11 8 10
-4 26 -8 36 -9z m-649 -25 c3 -5 -5 -11 -19 -13 -26 -5 -35 6 -12 15 19 8 25
8 31 -2z m-71 -18 c4 -2 7 -8 7 -14 0 -13 -44 -11 -59 4 -10 10 -16 8 -28 -10
-19 -28 -33 -30 -33 -5 0 31 22 43 65 36 22 -3 43 -8 48 -11z m240 1 c3 -4 2
-15 -4 -25 -8 -16 -12 -17 -23 -7 -10 9 -11 17 -4 26 12 13 21 15 31 6z m2232
-44 c10 -11 26 -20 36 -20 10 0 20 -4 24 -10 3 -5 12 -7 20 -3 26 9 7 -23 -20
-35 -22 -10 -27 -7 -53 26 -16 20 -32 43 -36 50 -11 19 9 14 29 -8z m-651 -11
c-3 -5 -10 -7 -15 -3 -5 3 -7 10 -3 15 3 5 10 7 15 3 5 -3 7 -10 3 -15z
m-1384 -20 c0 -10 5 -21 12 -25 7 -5 3 -10 -12 -16 -12 -5 -21 -11 -18 -13 7
-7 68 18 68 28 0 4 -5 5 -12 1 -7 -4 -8 -3 -4 4 8 14 36 16 36 3 0 -5 9 -11
19 -14 26 -6 25 -59 -1 -87 -24 -26 -30 -25 -58 5 -33 35 -96 42 -154 17 -25
-12 -46 -27 -46 -35 0 -15 43 -36 71 -35 22 2 89 -41 89 -55 0 -7 -4 -18 -9
-26 -7 -11 -14 -10 -40 5 -17 10 -31 22 -31 26 0 19 -19 5 -30 -22 -7 -17 -17
-30 -23 -30 -21 0 -87 53 -92 74 -15 76 -14 83 10 106 15 14 28 19 37 14 11
-6 11 -5 0 8 -10 13 -9 15 13 10 14 -2 22 -9 18 -15 -3 -6 -1 -7 6 -3 9 6 9
11 0 22 -7 9 -8 14 -3 12 6 -2 25 11 42 29 45 44 112 52 112 12z m-448 -21
c-11 -11 -32 -3 -32 12 0 4 9 6 21 3 13 -4 17 -9 11 -15z m676 8 c2 -3 -3 -17
-12 -31 -18 -27 -38 -24 -66 9 -12 16 -5 21 23 17 4 0 7 3 7 8 0 10 38 7 48
-3z m-568 -62 c0 -23 -22 -27 -41 -8 -18 19 -18 19 11 19 17 1 30 -4 30 -11z
m1960 12 c0 -11 -19 -15 -25 -6 -3 5 1 10 9 10 9 0 16 -2 16 -4z"/>
<path d="M2473 4523 c-20 -7 -15 -19 11 -31 20 -9 25 -8 30 4 12 33 -3 43 -41
27z"/>
<path d="M2596 4465 c-19 -14 -18 -15 12 -26 18 -6 32 -13 32 -15 0 -17 -27
-54 -39 -54 -13 -1 -13 -3 2 -15 22 -16 67 -2 67 21 0 7 9 18 19 24 11 5 27
18 37 27 19 19 44 26 44 13 0 -14 -23 -60 -29 -60 -11 0 -11 -44 1 -57 23 -28
37 -13 45 50 12 98 11 102 -17 103 -37 3 -80 -7 -80 -18 0 -5 6 -6 13 -3 6 4
5 1 -4 -7 -9 -7 -19 -20 -22 -28 -4 -8 -5 1 -4 20 2 32 0 35 -28 37 -16 2 -39
-4 -49 -12z"/>
<path d="M2311 4451 c-9 -16 -7 -20 13 -25 19 -5 22 -11 18 -32 -5 -25 -3 -26
24 -20 16 4 34 14 40 22 10 12 16 6 35 -33 25 -51 53 -63 72 -31 9 13 7 21 -5
35 -9 10 -18 27 -20 38 -2 12 -11 20 -23 20 -11 1 -26 5 -34 9 -10 7 -12 5 -6
-5 8 -12 6 -12 -8 0 -13 11 -20 11 -32 1 -12 -10 -15 -7 -21 14 -7 31 -38 35
-53 7z"/>
<path d="M2560 4320 c0 -5 5 -10 10 -10 6 0 10 5 10 10 0 6 -4 10 -10 10 -5 0
-10 -4 -10 -10z"/>
<path d="M1647 4164 c-6 -6 54 -43 61 -38 6 4 -37 44 -46 44 -5 0 -12 -3 -15
-6z"/>
<path d="M689 2784 c-12 -14 -23 -74 -14 -74 4 0 45 79 45 85 0 11 -18 4 -31
-11z"/>
<path d="M2207 2950 c-4 -15 0 -20 14 -20 10 0 19 -4 19 -10 0 -5 5 -10 10
-10 16 0 11 26 -8 43 -24 22 -29 21 -35 -3z"/>
<path d="M2160 2856 c0 -2 7 -9 15 -16 12 -10 15 -10 15 4 0 9 -7 16 -15 16
-8 0 -15 -2 -15 -4z"/>
<path d="M2136 2815 c-3 -10 -12 -15 -21 -11 -8 3 -15 1 -15 -4 0 -13 30 -13
50 0 11 7 12 12 4 20 -8 8 -13 7 -18 -5z"/>
<path d="M2251 2796 c-8 -9 -11 -19 -7 -23 9 -9 29 13 24 27 -2 8 -8 7 -17 -4z"/>
<path d="M2370 2712 c0 -5 9 -12 21 -15 13 -3 19 -1 16 6 -5 15 -37 22 -37 9z"/>
<path d="M2230 2652 c0 -5 7 -15 15 -22 8 -7 15 -8 15 -2 0 5 -7 15 -15 22 -8
7 -15 8 -15 2z"/>
<path d="M2160 2640 c0 -5 5 -10 10 -10 6 0 10 5 10 10 0 6 -4 10 -10 10 -5 0
-10 -4 -10 -10z"/>
<path d="M2067 2599 c3 -11 16 -26 29 -31 22 -10 28 -20 25 -40 -3 -21 19 -5
25 17 4 15 16 28 30 31 13 3 21 10 18 15 -3 5 -9 7 -14 4 -5 -3 -11 -1 -15 5
-9 15 -25 12 -25 -5 0 -8 -9 -15 -20 -15 -11 0 -20 4 -20 10 0 5 -9 14 -19 19
-16 9 -18 8 -14 -10z"/>
<path d="M2145 2490 c-3 -5 -1 -10 4 -10 6 0 11 5 11 10 0 6 -2 10 -4 10 -3 0
-8 -4 -11 -10z"/>
<path d="M2590 2491 c0 -6 5 -13 10 -16 6 -3 10 1 10 9 0 9 -4 16 -10 16 -5 0
-10 -4 -10 -9z"/>
<path d="M2647 2468 c-3 -18 -6 -94 -7 -168 0 -74 -4 -177 -8 -228 -4 -52 -4
-96 -1 -98 14 -8 84 24 87 39 2 10 -1 17 -7 17 -6 0 -6 11 0 33 5 17 12 97 15
177 2 79 7 146 9 148 5 6 -48 84 -68 100 -12 11 -16 7 -20 -20z"/>
<path d="M2080 2466 c0 -2 11 -6 25 -8 14 -3 25 -1 25 3 0 5 -11 9 -25 9 -14
0 -25 -2 -25 -4z"/>
<path d="M2034 2409 c-3 -6 -1 -16 5 -22 8 -8 11 -5 11 11 0 24 -5 28 -16 11z"/>
<path d="M2581 2174 c0 -11 3 -14 6 -6 3 7 2 16 -1 19 -3 4 -6 -2 -5 -13z"/>
<path d="M2582 2100 c0 -14 2 -19 5 -12 2 6 2 18 0 25 -3 6 -5 1 -5 -13z"/>
<path d="M4130 2770 c0 -5 5 -10 11 -10 5 0 7 5 4 10 -3 6 -8 10 -11 10 -2 0
-4 -4 -4 -10z"/>
<path d="M3067 2773 c-4 -3 -7 -11 -7 -17 0 -6 5 -5 12 2 6 6 9 14 7 17 -3 3
-9 2 -12 -2z"/>
<path d="M4410 2286 c0 -8 -5 -16 -11 -18 -8 -3 -9 -10 -1 -23 5 -11 14 -31
19 -44 8 -20 10 -14 11 32 1 31 -3 59 -8 62 -6 3 -10 0 -10 -9z"/>
<path d="M4245 1789 c-4 -6 -5 -12 -2 -15 2 -3 7 2 10 11 7 17 1 20 -8 4z"/>
<path d="M3781 1980 c11 -19 19 -43 19 -52 0 -10 4 -18 9 -18 19 0 23 22 11
65 -10 35 -16 43 -35 41 l-22 -1 18 -35z"/>
<path d="M2996 2062 c-3 -6 -1 -14 5 -17 15 -10 25 3 12 16 -7 7 -13 7 -17 1z"/>
<path d="M3641 2414 c0 -11 3 -14 6 -6 3 7 2 16 -1 19 -3 4 -6 -2 -5 -13z"/>
<path d="M1308 2262 c-16 -10 -28 -20 -28 -23 0 -9 34 -7 47 3 7 6 20 8 28 4
13 -4 14 -2 5 14 -13 23 -16 24 -52 2z"/>
<path d="M1376 2211 c-15 -16 -15 -19 3 -35 10 -9 28 -18 40 -21 11 -2 26 -7
32 -11 7 -4 10 1 7 12 -2 12 -13 20 -31 22 -27 3 -38 27 -15 34 8 3 6 7 -4 10
-9 4 -23 -1 -32 -11z"/>
<path d="M1217 2203 c-4 -3 -7 -11 -7 -17 0 -6 5 -5 12 2 6 6 9 14 7 17 -3 3
-9 2 -12 -2z"/>
<path d="M1098 2183 c7 -3 16 -2 19 1 4 3 -2 6 -13 5 -11 0 -14 -3 -6 -6z"/>
<path d="M1140 2180 c0 -5 4 -10 9 -10 6 0 13 5 16 10 3 6 -1 10 -9 10 -9 0
-16 -4 -16 -10z"/>
<path d="M1295 2160 c-3 -6 5 -14 19 -20 14 -5 26 -14 26 -20 0 -5 7 -10 15
-10 8 0 15 9 15 20 0 13 -7 20 -20 20 -11 0 -20 5 -20 10 0 13 -27 13 -35 0z"/>
<path d="M3380 2411 c0 -5 5 -13 10 -16 6 -3 10 -2 10 4 0 5 -4 13 -10 16 -5
3 -10 2 -10 -4z"/>
<path d="M3231 1934 c0 -11 3 -14 6 -6 3 7 2 16 -1 19 -3 4 -6 -2 -5 -13z"/>
<path d="M3228 1827 c-3 -19 -2 -25 4 -19 6 6 8 18 6 28 -3 14 -5 12 -10 -9z"/>
<path d="M3510 2140 c0 -5 7 -7 15 -4 8 4 15 8 15 10 0 2 -7 4 -15 4 -8 0 -15
-4 -15 -10z"/>
<path d="M4451 1604 c0 -11 3 -14 6 -6 3 7 2 16 -1 19 -3 4 -6 -2 -5 -13z"/>
<path d="M3348 548 c8 -8 20 -8 44 -1 l33 11 -44 1 c-34 1 -42 -2 -33 -11z"/>
<path d="M3178 4780 c-15 -4 -29 -5 -32 -2 -3 3 -6 1 -6 -5 0 -13 33 -43 48
-43 6 0 16 -8 21 -19 13 -23 65 -45 87 -37 13 5 14 9 4 21 -7 8 -18 15 -25 15
-19 0 -55 49 -48 66 6 15 -7 17 -49 4z"/>
<path d="M1697 4763 c-3 -5 -8 -27 -12 -49 -5 -33 -3 -43 9 -47 13 -5 16 1 16
33 l0 40 35 -17 c19 -9 36 -21 36 -27 1 -6 2 -18 3 -26 1 -11 15 -16 48 -18
25 -2 52 -10 58 -18 7 -7 16 -14 21 -14 13 0 11 38 -2 46 -6 3 -9 23 -7 44 3
32 0 38 -17 38 -62 2 -166 11 -174 16 -5 4 -12 3 -14 -1z"/>
<path d="M3042 4751 c5 -24 35 -25 65 -1 l27 21 -47 -2 c-37 -2 -47 -6 -45
-18z"/>
<path d="M2357 4660 c3 -11 7 -20 9 -20 2 0 4 9 4 20 0 11 -4 20 -9 20 -5 0
-7 -9 -4 -20z"/>
<path d="M270 2275 c-6 -8 -9 -19 -5 -25 4 -6 -6 -27 -20 -47 -16 -20 -30 -53
-32 -77 -5 -42 -5 -42 26 -40 17 1 34 -3 39 -9 9 -16 73 -49 80 -42 3 3 -1 17
-8 32 -7 16 -14 63 -15 106 -2 58 -7 83 -20 97 -22 24 -29 25 -45 5z"/>
<path d="M2255 499 c-25 -22 -35 -39 -35 -60 0 -25 4 -29 28 -30 56 -2 87 3
97 18 19 26 49 12 55 -26 l5 -34 30 26 c25 21 28 29 19 44 -6 10 -15 33 -18
51 -8 36 -21 48 -32 31 -5 -8 -3 -9 6 -4 9 6 11 4 6 -4 -6 -9 -12 -9 -25 3
-10 9 -35 16 -59 16 -32 0 -49 -7 -77 -31z"/>
<path d="M2004 330 c4 -33 3 -50 -3 -46 -5 4 -12 2 -16 -4 -10 -16 -37 -12
-59 9 -32 28 -97 33 -138 9 -42 -26 -67 -57 -68 -86 0 -20 4 -22 38 -19 24 3
38 10 40 20 2 12 11 15 30 12 63 -11 122 -11 126 -1 2 6 5 5 5 -3 1 -11 4 -11
18 0 9 8 19 13 22 13 3 -1 13 19 21 45 8 25 21 51 30 58 17 14 7 27 -29 38
-24 7 -24 7 -17 -45z"/>
<path d="M2350 352 c0 -9 9 -23 19 -29 16 -10 20 -9 23 12 3 15 0 26 -9 29
-25 10 -33 7 -33 -12z"/>
<path d="M2598 363 c-16 -2 -28 -9 -28 -14 0 -5 -9 -9 -20 -9 -10 0 -24 -8
-29 -18 -9 -16 -6 -18 20 -14 17 2 29 0 29 -7 0 -6 6 -8 13 -5 7 2 34 6 60 8
27 2 53 9 60 17 7 7 8 10 3 6 -5 -4 -24 4 -42 18 -18 14 -34 24 -36 24 -2 -1
-15 -4 -30 -6z m37 -23 c-3 -5 -16 -10 -28 -9 -20 1 -20 2 3 9 14 4 26 8 28 9
2 1 0 -3 -3 -9z"/>
<path d="M2995 319 c-11 -17 1 -21 15 -4 8 9 8 15 2 15 -6 0 -14 -5 -17 -11z"/>
<path d="M2191 281 c-51 -9 -48 -26 4 -24 39 1 100 22 68 23 -6 0 -17 2 -25 4
-7 2 -28 1 -47 -3z"/>
</g>
</svg>
